<?xml version="1.0" encoding="utf-8"?>
<!-- Generator: Adobe Illustrator 22.1.0, SVG Export Plug-In . SVG Version: 6.00 Build 0)  -->
<svg version="1.1" id="Layer_1" xmlns="http://www.w3.org/2000/svg" xmlns:xlink="http://www.w3.org/1999/xlink" x="0px" y="0px"
	 viewBox="0 0 498 498" style="enable-background:new 0 0 498 498;" xml:space="preserve">
<style type="text/css">
	.st0{fill:#283E4E;}
	.st1{fill:#BEF2EF;}
</style>
<path class="st0" d="M143.9,353.1h79.9v16h-79.9V353.1z"/>
<path class="st0" d="M147.5,230.7l-14.8-6.1c-0.8,1.9-1.7,3.8-2.9,5.6l-2.3,3.8l3.8,7.6l-3.2,3.2l-7.6-3.8l-3.8,2.3
	c-3.6,2.2-7.6,3.9-11.7,4.8l-4.3,1l-2.7,8.1h-4.5l-2.7-8.1l-4.3-1c-4.1-1-8-2.6-11.6-4.8l-3.8-2.3l-7.6,3.8l-3.2-3.2l3.8-7.6
	l-2.3-3.8c-2.2-3.6-3.9-7.5-4.8-11.6l-1-4.3l-8.1-2.7v-4.5l8.1-2.7l1-4.3c1-4.1,2.6-8,4.8-11.7l2.3-3.8l-3.8-7.6l3.2-3.2l7.6,3.8
	l3.8-2.3c3.6-2.2,7.5-3.9,11.6-4.8l4.3-1l2.7-8.1h4.5l2.7,8.1l4.3,1c4.1,1,8,2.6,11.7,4.8l3.8,2.3l7.6-3.8l1.2,1.2l3.5-3.5l0.4-0.2
	l-0.1-0.1l7.4-7.4l-9.3-9.3l-10.2,5.1c-2.6-1.3-5.2-2.4-8-3.3l-3.6-10.8H82.2l-3.6,10.8c-2.7,0.9-5.4,2-8,3.3l-10.2-5.1L41,173.8
	l5.1,10.2c-1.3,2.6-2.4,5.2-3.3,8L32,195.5V223l10.8,3.6c0.9,2.7,2,5.4,3.3,8L41,244.8l19.5,19.5l10.2-5.1c2.6,1.3,5.2,2.4,8,3.3
	l3.6,10.8h27.5l3.6-10.8c2.7-0.9,5.4-2,8-3.3l10.2,5.1l19.5-19.5l-5.1-10.2C146.4,233.3,147,232,147.5,230.7z"/>
<path class="st0" d="M95.9,185.3c-13.2,0-24,10.8-24,24s10.8,24,24,24s24-10.8,24-24S109.1,185.3,95.9,185.3z M95.9,217.3
	c-4.4,0-8-3.6-8-8c0-4.4,3.6-8,8-8c4.4,0,8,3.6,8,8C103.9,213.7,100.3,217.3,95.9,217.3z"/>
<path class="st0" d="M399.6,385.1v55.9c0,22-17.9,40-40,40H231.8c-22,0-40-17.9-40-40v-8h32v-32h48c17.6,0,32-14.3,32-32V33.5
	c0-17.6-14.3-32-32-32H95.9c-17.6,0-32,14.3-32,32V119C26.8,132.2,0,167.6,0,209.3s26.8,77.1,63.9,90.3v69.5c0,17.6,14.3,32,32,32
	h48v32h32v8c0,30.8,25.1,55.9,55.9,55.9h127.9c30.8,0,55.9-25.1,55.9-55.9v-55.9H399.6z M95.9,17.5h175.8c8.8,0,16,7.2,16,16v32
	H79.9v-32C79.9,24.7,87.1,17.5,95.9,17.5z M95.9,305.2h95.9v-71.9h-16v55.9H95.9c-44.1,0-79.9-35.9-79.9-79.9s35.9-79.9,79.9-79.9
	c12.8,0,25,2.9,36.3,8.7l7.3-14.2c-13.6-6.9-28.2-10.5-43.6-10.5c-5.5,0-10.8,0.6-16,1.4V81.4h207.8v239.8H79.9v-17.4
	C85.1,304.6,90.4,305.2,95.9,305.2z M79.9,369.1v-32h207.8v32c0,8.8-7.2,16-16,16H95.9C87.1,385.1,79.9,377.9,79.9,369.1z
	 M159.8,401.1h48v16h-48V401.1z"/>
<path class="st1" d="M447.6,121.4c0,22.1-17.9,40-40,40c-22.1,0-40-17.9-40-40s17.9-40,40-40C429.7,81.4,447.6,99.3,447.6,121.4z"/>
<path class="st1" d="M247.8,241.3h-95.9c-13.2,0-24-10.8-24-24v-95.9c0-13.2,10.8-24,24-24h95.9c13.2,0,24,10.8,24,24v95.9
	C271.7,230.5,261,241.3,247.8,241.3z"/>
<path class="st0" d="M192.4,193.3h16v16h-16V193.3z"/>
<path class="st0" d="M239.5,161.2c-10.6-10.2-24.7-15.9-39.7-15.9c-15,0-29.1,5.6-39.7,15.9L149,149.7
	c13.6-13.1,31.6-20.3,50.8-20.3s37.2,7.2,50.8,20.4L239.5,161.2z"/>
<path class="st0" d="M217.2,183.4c-9.2-7.8-25.6-7.8-34.8,0L172,171.3c7.5-6.4,17.3-9.9,27.8-9.9c10.4,0,20.3,3.5,27.8,9.9
	L217.2,183.4z"/>
<path class="st0" d="M399.6,1.5h16v40h-16V1.5z"/>
<path class="st0" d="M317.2,42.3L328.5,31l28.2,28.2l-11.3,11.3L317.2,42.3z"/>
<path class="st0" d="M458.4,59.2L486.7,31L498,42.3l-28.2,28.2L458.4,59.2z"/>
<path class="st0" d="M447.6,173.3c14.7-12,24-31.9,24-51.9c0-35.3-28.7-63.9-63.9-63.9s-63.9,28.7-63.9,63.9c0,20,9.3,39.9,24,51.9
	v4h-16v16h16v32h32v48h16v-48h32v-32h16v-16h-16V173.3z M380.2,162.8c-12.5-8.7-20.6-25-20.6-41.4c0-26.4,21.5-48,48-48
	c26.4,0,48,21.5,48,48c0,16.4-8.1,32.7-20.6,41.4l-3.4,2.4v12.2h-16v-33.4c9.3-3.3,16-12.1,16-22.5c0-13.2-10.8-24-24-24
	c-13.2,0-24,10.8-24,24c0,10.4,6.7,19.2,16,22.5v33.4h-16v-12.2L380.2,162.8z M399.6,121.4c0-4.4,3.6-8,8-8c4.4,0,8,3.6,8,8
	c0,4.4-3.6,8-8,8C403.2,129.4,399.6,125.8,399.6,121.4z M431.6,209.3h-48v-16h48V209.3z"/>
<path class="st0" d="M399.6,289.2h16v16h-16V289.2z"/>
<path class="st0" d="M399.6,321.2h16v16h-16V321.2z"/>
<path class="st0" d="M399.6,353.1h16v16h-16V353.1z"/>
</svg>
