<?xml version="1.0" encoding="utf-8"?>
<!-- Generator: Adobe Illustrator 22.1.0, SVG Export Plug-In . SVG Version: 6.00 Build 0)  -->
<svg version="1.1" id="Layer_1" xmlns="http://www.w3.org/2000/svg" xmlns:xlink="http://www.w3.org/1999/xlink" x="0px" y="0px"
	 viewBox="0 0 512 512" style="enable-background:new 0 0 512 512;" xml:space="preserve">
<style type="text/css">
	.st0{fill:#BEF2EF;}
	.st1{fill:#283E4E;}
</style>
<path class="st0" d="M155,107.1L115,176l20,128l42,48l106.5,5.5c-6.7-82.3-30.7-161.3-49.6-245.3L155,107.1z"/>
<path class="st1" d="M435,347h-73.3c5.4-6.6,10.1-13.4,14.2-19.4c16.9-24.4,29.8-56.4,35.3-87.6c6.7-38.2,2.2-72.5-13.2-99.1
	c-17.4-30.3-49.2-49.5-82.8-50c-2.4,0-4.7,0-7,0.3c0,0.1-0.1,0.2,0,0h0c8.5-18.9,11.8-41,8.1-60c-1.5-7.9-6.8-14.5-14.1-17.9
	c-7.3-3.4-15.8-3-22.8,1c-16.7,9.6-31.6,25.4-39.6,42.4c-6.1,12.7-9.4,27-9.8,40.6c-10.2-3.5-21.8-6.7-33.4-6.4
	c-33.7,0.5-65.4,19.7-82.9,50c-15.4,26.6-19.9,60.9-13.2,99.1c5.5,31.3,18.4,63.2,35.3,87.6c4.1,5.9,8.8,12.7,14.2,19.4H77
	c-42.5,0-77,34.6-77,77s34.5,77,77,77h358c42.5,0,77-34.5,77-77S477.5,347,435,347z M266.9,69.6c4.3-9.1,12.1-18.3,20.8-24.9
	c0.6,10.8-1.6,22.4-6.4,32.9c-4.7,10.3-12.6,19.5-21.3,25.1C259.4,90.4,262.9,78,266.9,69.6z M77,471c-23.7,0-43.4-17.6-46.6-40.4
	c-4-28.2,18-53.6,46.6-53.6c25.9,0,47,21.1,47,47S102.9,471,77,471z M138,471c10.1-13,16.1-29.3,16.1-47s-6-34-16.1-47H195
	C185,390,179,406.3,179,424s6,34,16.1,47H138z M256,471c-25.9,0-47-21.1-47-47s21.1-47,47-47s47,21.1,47,47S281.9,471,256,471z
	 M241,132.9c5.9,1.8,10.5,2.7,15.1,2.7 M256.1,135.6c7.4,0,14.7-2.3,27.3-6.9c10.1-3.7,21.6-7.9,31.3-7.8
	c23.1,0.3,45.1,13.7,57.3,35c40.8,70.7-30.1,192.2-61.4,191.1H201.2c-13.9,0.5-27.6-17.7-40.6-36.4
	c-60.7-87.7-35.5-219.6,68.1-181.8c4.7,1.7,8.8,3.1,12.3,4.2 M317,471c10.1-13,16.1-29.3,16.1-47s-6-34-16.1-47H374
	C364,390,358,406.3,358,424s6,34,16.1,47H317z M435,471c-25.9,0-47-21.1-47-47c0-25.9,21.1-47,47-47c25.8,0,47,21,47,47
	C482,449.8,461,471,435,471z"/>
<path class="st1" d="M92,424c0,8.3-6.7,15-15,15c-8.3,0-15-6.7-15-15s6.7-15,15-15C85.3,409,92,415.7,92,424z"/>
<path class="st1" d="M271,424c0,8.3-6.7,15-15,15s-15-6.7-15-15s6.7-15,15-15S271,415.7,271,424z"/>
<path class="st1" d="M450,424c0,8.3-6.7,15-15,15s-15-6.7-15-15s6.7-15,15-15S450,415.7,450,424z"/>
</svg>
