<?xml version="1.0" encoding="utf-8"?>
<!-- Generator: Adobe Illustrator 22.1.0, SVG Export Plug-In . SVG Version: 6.00 Build 0)  -->
<svg version="1.1" id="Layer_1" xmlns="http://www.w3.org/2000/svg" xmlns:xlink="http://www.w3.org/1999/xlink" x="0px" y="0px"
	 viewBox="0 0 512 512" style="enable-background:new 0 0 512 512;" xml:space="preserve">
<style type="text/css">
	.st0{fill:#BEF2EF;}
	.st1{fill:#ECF4F7;}
	.st2{fill:#283E4E;}
</style>
<g>
	<g>
		<circle class="st0" cx="228.8" cy="431.2" r="75.7"/>
	</g>
</g>
<g>
	<g>
		<g>
			<path class="st1" d="M219.8,462.4c-3.3,0-6.3-1.3-8.7-3.6l-20-20c-4.8-4.8-4.8-12.5,0-17.3c4.8-4.8,12.5-4.8,17.3,0l11.4,11.4
				l29.5-29.5c4.8-4.8,12.5-4.8,17.3,0c4.8,4.8,4.8,12.5,0,17.3l-38.2,38.1C226.1,461.2,222.9,462.4,219.8,462.4z"/>
		</g>
	</g>
</g>
<g>
	<g>
		<path class="st0" d="M155.8,187.9h-26.8c-2.8,0-4.9-2.2-4.9-4.9v-26.8c0-2.8,2.3-4.9,4.9-4.9h26.8c2.8,0,4.9,2.2,4.9,4.9V183
			C160.7,185.8,158.5,187.9,155.8,187.9z"/>
	</g>
</g>
<g>
	<g>
		<path class="st0" d="M155.8,256h-26.8c-2.8,0-4.9-2.2-4.9-4.9v-26.8c0-2.8,2.3-4.9,4.9-4.9h26.8c2.8,0,4.9,2.2,4.9,4.9v26.8
			C160.7,253.8,158.5,256,155.8,256z"/>
	</g>
</g>
<g>
	<g>
		<path class="st0" d="M155.8,324.1h-26.8c-2.8,0-4.9-2.2-4.9-4.9v-26.8c0-2.8,2.3-4.9,4.9-4.9h26.8c2.8,0,4.9,2.2,4.9,4.9v26.8
			C160.7,321.8,158.5,324.1,155.8,324.1z"/>
	</g>
</g>
<g>
	<polygon class="st0" points="358.7,56.3 149,56.3 149,110.8 304.2,110.8 304.2,169.6 363,169.6 363,401.2 417.5,401.2 417.5,115.1 
			"/>
</g>
<path class="st2" d="M368,168.6L368,168.6c-0.1-0.3-0.1-0.6-0.3-0.8c0-0.1-0.1-0.2-0.1-0.2c-0.1-0.2-0.2-0.4-0.3-0.6
	c0-0.1-0.1-0.1-0.1-0.2c-0.2-0.2-0.4-0.5-0.6-0.7l-58.8-58.8l0,0c-0.2-0.2-0.4-0.4-0.7-0.6c-0.1-0.1-0.1-0.1-0.2-0.1
	c-0.2-0.1-0.4-0.2-0.6-0.3c-0.1,0-0.2-0.1-0.2-0.1c-0.3-0.1-0.6-0.2-0.8-0.3l0,0c-0.3-0.1-0.6-0.1-0.9-0.1h-0.1H99.6V71.8
	c0-2.9-2.3-5.1-5.1-5.1s-5.1,2.3-5.1,5.1v39l0,0v320.3c0,2.9,2.3,5.1,5.1,5.1h40.6c2.9,0,5.1-2.3,5.1-5.1s-2.3-5.1-5.1-5.1H99.6
	V115.9h199.5v53.7c0,2.9,2.3,5.1,5.1,5.1h53.7V426h-34.5c-2.9,0-5.1,2.3-5.1,5.1s2.3,5.1,5.1,5.1H363c2.9,0,5.1-2.3,5.1-5.1V169.6
	v-0.1C368.1,169.2,368.1,168.9,368,168.6z M309.4,164.5v-41.3l41.3,41.3H309.4z M89.4,21.3h-5.9c-2.9,0-5.1-2.3-5.1-5.1
	s2.3-5.1,5.1-5.1h5.9V5.1c0-2.9,2.3-5.1,5.1-5.1s5.1,2.3,5.1,5.1v5.9h5.9c2.9,0,5.1,2.3,5.1,5.1s-2.3,5.1-5.1,5.1h-5.9v5.9
	c0,2.9-2.3,5.1-5.1,5.1s-5.1-2.3-5.1-5.1V21.3z M99.6,45.9v4.8c0,2.9-2.3,5.1-5.1,5.1s-5.1-2.3-5.1-5.1v-4.8c0-2.9,2.3-5.1,5.1-5.1
	S99.6,43,99.6,45.9z M433.7,495.8c0,2.9-2.3,5.1-5.1,5.1h-5.9v5.9c0,2.9-2.3,5.1-5.1,5.1s-5.1-2.3-5.1-5.1v-5.9h-5.9
	c-2.9,0-5.1-2.3-5.1-5.1s2.3-5.1,5.1-5.1h5.9v-5.9c0-2.9,2.3-5.1,5.1-5.1s5.1,2.3,5.1,5.1v5.9h5.9
	C431.4,490.7,433.7,493,433.7,495.8z M422.6,461.3v4.8c0,2.9-2.3,5.1-5.1,5.1s-5.1-2.3-5.1-5.1v-4.8c0-2.9,2.3-5.1,5.1-5.1
	S422.6,458.5,422.6,461.3z M412.4,406.3H384c-2.9,0-5.1-2.3-5.1-5.1s2.3-5.1,5.1-5.1h28.4V117.2l-55.8-55.8H154.1v30.4
	c0,2.9-2.3,5.1-5.1,5.1s-5.1-2.3-5.1-5.1V56.3c0-2.9,2.3-5.1,5.1-5.1h209.7c1.3,0,2.7,0.5,3.6,1.5l58.8,58.8
	c0.9,0.9,1.5,2.3,1.5,3.6v286l0,0v39c0,2.9-2.3,5.1-5.1,5.1s-5.1-2.3-5.1-5.1L412.4,406.3L412.4,406.3z M228.8,350.3
	c-44.5,0-80.8,36.2-80.8,80.8s36.2,80.8,80.8,80.8s80.8-36.2,80.8-80.8S273.3,350.3,228.8,350.3z M228.8,501.8
	c-38.9,0-70.6-31.6-70.6-70.6s31.6-70.6,70.6-70.6s70.6,31.6,70.6,70.6S267.7,501.8,228.8,501.8z M128.9,193h26.8
	c5.5,0,10-4.5,10-10v-26.8c0-5.5-4.5-10-10-10h-26.8c-5.5,0-10,4.5-10,10V183C118.9,188.5,123.4,193,128.9,193z M129.1,156.4h26.4
	v26.4h-26.4C129.1,182.8,129.1,156.4,129.1,156.4z M118.9,251.1c0,5.5,4.5,10,10,10h26.8c5.5,0,10-4.5,10-10v-26.8
	c0-5.5-4.5-10-10-10h-26.8c-5.5,0-10,4.5-10,10C118.9,224.3,118.9,251.1,118.9,251.1z M129.1,224.5h26.4v26.4h-26.4
	C129.1,250.9,129.1,224.5,129.1,224.5z M118.9,319.2c0,5.5,4.5,10,10,10h26.8c5.5,0,10-4.5,10-10v-26.8c0-5.5-4.5-10-10-10h-26.8
	c-5.5,0-10,4.5-10,10C118.9,292.2,118.9,319.2,118.9,319.2z M129.1,292.5h26.4v26.4h-26.4C129.1,318.9,129.1,292.5,129.1,292.5z
	 M183.7,169.6c0-2.9,2.3-5.1,5.1-5.1h69.8c2.9,0,5.1,2.3,5.1,5.1s-2.3,5.1-5.1,5.1h-69.8C186,174.7,183.7,172.4,183.7,169.6z
	 M183.7,237.7c0-2.9,2.3-5.1,5.1-5.1h69.8c2.9,0,5.1,2.3,5.1,5.1c0,2.9-2.3,5.1-5.1,5.1h-69.8C186,242.8,183.7,240.4,183.7,237.7z
	 M183.7,305.7c0-2.9,2.3-5.1,5.1-5.1h69.8c2.9,0,5.1,2.3,5.1,5.1s-2.3,5.1-5.1,5.1h-69.8C186,310.8,183.7,308.5,183.7,305.7z
	 M257.8,394.8c-4.6,0-9,1.8-12.3,5.1l-25.8,25.8l-7.7-7.7c-3.3-3.3-7.7-5.1-12.3-5.1s-9,1.8-12.3,5.1c-6.8,6.8-6.8,17.8,0,24.6
	l20,20c3.3,3.3,7.7,5.1,12.3,5.1s9-1.8,12.3-5.1l38.1-38.1c3.3-3.3,5.1-7.7,5.1-12.3c0-4.6-1.8-9-5.1-12.3
	C266.9,396.6,262.5,394.8,257.8,394.8z M262.9,417.2l-38.1,38.1c-1.3,1.3-3.2,2-5,2c-1.9,0-3.7-0.7-5-2l-20-20
	c-2.8-2.8-2.8-7.3,0-10c1.3-1.3,3.2-2,5-2c1.9,0,3.7,0.7,5,2l11.4,11.4c2,2,5.2,2,7.3,0l29.5-29.5c1.3-1.3,3.2-2,5-2
	c1.8,0,3.7,0.7,5,2c1.3,1.3,2,3.2,2,5C265,414,264.2,415.8,262.9,417.2z"/>
</svg>
