<svg xmlns="http://www.w3.org/2000/svg" viewBox="0 0 321.48 309"><title>improve_service</title><g id="Layer_2" data-name="Layer 2"><g id="Layer_4" data-name="Layer 4"><rect width="300" height="309" rx="56.59" ry="56.59" style="fill:#c4252d;opacity:0.07"/><circle cx="130.92" cy="44.18" r="3" style="fill:#005d8a"/><circle cx="111.84" cy="86.83" r="2.5" style="fill:#005d8a"/><circle cx="153.04" cy="50.56" r="1" style="fill:#005d8a"/><circle cx="115.44" cy="35.61" r="1" style="fill:#005d8a"/><circle cx="92.06" cy="25.43" r="1" style="fill:#005d8a"/><circle cx="144.13" cy="71.41" r="2" style="fill:#005d8a"/><circle cx="151.91" cy="126.77" r="3" style="fill:#005d8a"/><circle cx="117.71" cy="145.98" r="2.5" style="fill:#005d8a"/><circle cx="128.59" cy="91.29" r="1" style="fill:#005d8a"/><circle cx="113.64" cy="128.89" r="1" style="fill:#005d8a"/><circle cx="103.46" cy="152.27" r="1" style="fill:#005d8a"/><circle cx="162.1" cy="93.9" r="2" style="fill:#005d8a"/><path d="M132,202c-3.5-2.5-6.68-5.84-10.56-7.34-11.07-4.27-22.68,2.85-27,10.32-6.23,10.81-1.85,20.22,6,27.55,12,11.25,30.28,4.22,38.05-6,11.16-14.7,6.4-29-8.52-39-12.58-8.48-28.55-6.61-40.89,3.15C71.61,204.46,59.09,222,53.42,244c-1.55,6-1.88,11.26,3.55,15.56,2,1.6,3.54,3.82,5.56,5.42,5,3.92,12.07,5.41,18,1.1a26.75,26.75,0,0,1,7-3.51c7.85-2.75,12.75-1,13.69,8.48.82,8.39,5.84,14.05,15.31,15.33A38.44,38.44,0,0,0,139,282.9c8.47-4.24,9.1-7.56,8.64-14.91-.19-3-.15-6.33,1.06-8.92,2.61-5.56,7.22-6.82,13.84-4.55,5.63,1.92,10.53.78,14.48-3.55a62.42,62.42,0,0,0,13.48-23.49c1.63-5.13-2.14-11.49-8.46-15-2.28-1.25-4.69-2.28-7-3.52-5.45-3-6.27-7-1.94-11.43a58.38,58.38,0,0,1,8.45-6.54c4.49-3.16,6.77-5.17,3.88-12.48A56.31,56.31,0,0,0,169,156c-4.89-4.13-10.35-2.61-15.44-.46s-10.13,5-16,4.92c-4.9-.09-7.67-3.07-8.07-8a36.45,36.45,0,0,0-2-10c-1.85-4.78-7.14-5.5-10.92-5.75-8.68-.57-17.56-1.31-26,2.58-4.31,2-6,4.71-6,9.13.06,4,.83,8.22-.16,12C82.22,168.48,73.79,172,65,169c-10.29-3.48-13.57-1.07-17.61,7.47-3.14,6.63-6.68,13.06-6.85,20.55-.19,8.12,4.05,12.18,12.45,12.5" style="fill:none;stroke:#005d8a;stroke-miterlimit:10;stroke-width:5px"/><path d="M249.83,147c3-3.11,6.72-5.78,8.75-9.42,5.79-10.36.38-22.86-6.41-28.17-9.83-7.69-19.76-4.67-28.12,2.07-12.84,10.35-8.45,29.38.59,38.52,13,13.12,27.77,10.42,39.83-2.93,10.17-11.26,10.57-27.33,2.66-40.93C255.91,86.9,240.33,72,219.35,63.32c-5.76-2.39-10.89-3.46-15.91,1.31-1.86,1.78-4.28,3-6.15,4.75-4.57,4.35-7.06,11.18-3.62,17.67a27.6,27.6,0,0,1,2.49,7.4c1.61,8.16-.81,12.77-10.33,12.36-8.42-.37-14.73,3.8-17.33,13a38.41,38.41,0,0,0,.25,22.69c3,9,6.21,10.07,13.54,10.65,3,.24,6.3.75,8.69,2.32,5.13,3.36,5.73,8.1,2.55,14.34-2.69,5.3-2.26,10.31,1.47,14.84a62.62,62.62,0,0,0,21.35,16.65c4.86,2.34,11.68-.49,16-6.26,1.56-2.08,2.92-4.33,4.47-6.42,3.71-5,7.82-5.22,11.59-.31a59.6,59.6,0,0,1,5.28,9.29c2.49,4.89,4.16,7.43,11.81,5.61a56.44,56.44,0,0,0,24.6-13.1c4.77-4.25,4-9.88,2.63-15.22s-3.57-10.74-2.62-16.56c.79-4.84,4.13-7.16,9.06-6.87a36.27,36.27,0,0,0,10.15-.6c5-1.15,6.45-6.29,7.23-10,1.79-8.51,3.78-17.19,1.12-26.14-1.35-4.54-3.81-6.63-8.2-7.18-4-.5-8.25-.34-11.81-1.84-7.64-3.23-9.9-12.06-5.71-20.34,4.89-9.69,3-13.27-4.92-18.48-6.12-4-12-8.45-19.38-9.68-8-1.33-12.63,2.29-14.13,10.56" style="fill:none;stroke:#005d8a;stroke-miterlimit:10;stroke-width:5px"/></g></g></svg>