<?xml version="1.0" encoding="utf-8"?>
<!-- Generator: Adobe Illustrator 22.1.0, SVG Export Plug-In . SVG Version: 6.00 Build 0)  -->
<svg version="1.1" id="Layer_1" xmlns="http://www.w3.org/2000/svg" xmlns:xlink="http://www.w3.org/1999/xlink" x="0px" y="0px"
	 viewBox="0 0 512 512" style="enable-background:new 0 0 512 512;" xml:space="preserve">
<style type="text/css">
	.st0{fill:#BEF2EF;}
	.st1{fill:#283E4E;}
</style>
<circle class="st0" cx="127.5" cy="384.5" r="118.5"/>
<path class="st1" d="M76.8,226.9c-4.7,0-8.5-3.8-8.5-8.5v-25.6c0-80,65.1-145.1,145.1-145.1c4.7,0,8.5,3.8,8.5,8.5s-3.8,8.5-8.5,8.5
	c-70.6,0-128,57.4-128,128v25.6C85.3,223,81.5,226.9,76.8,226.9z"/>
<path class="st1" d="M76.8,226.9c-2.5,0-5-1.1-6.7-3.2L36,181c-2.9-3.7-2.3-9.1,1.3-12c3.7-3,9.1-2.3,12,1.3L83.5,213
	c2.9,3.7,2.3,9.1-1.3,12C80.6,226.3,78.7,226.9,76.8,226.9z"/>
<path class="st1" d="M76.8,226.9c-1.9,0-3.8-0.6-5.3-1.9c-3.7-2.9-4.3-8.3-1.3-12l34.1-42.7c2.9-3.7,8.3-4.3,12-1.3
	c3.7,2.9,4.3,8.3,1.3,12l-34.1,42.7C81.8,225.8,79.3,226.9,76.8,226.9z"/>
<path class="st1" d="M298.7,457.3c-4.7,0-8.5-3.8-8.5-8.5s3.8-8.5,8.5-8.5c70.6,0,128-57.4,128-128v-25.6c0-4.7,3.8-8.5,8.5-8.5
	s8.5,3.8,8.5,8.5v25.6C443.7,392.2,378.7,457.3,298.7,457.3z"/>
<path class="st1" d="M469.3,337.8c-2.5,0-5-1.1-6.7-3.2l-34.1-42.7c-2.9-3.7-2.3-9.1,1.3-12c3.7-2.9,9.1-2.3,12,1.3l34.1,42.7
	c2.9,3.7,2.3,9.1-1.3,12C473.1,337.2,471.2,337.8,469.3,337.8z"/>
<path class="st1" d="M401.1,337.8c-1.9,0-3.8-0.6-5.3-1.9c-3.7-2.9-4.3-8.3-1.3-12l34.1-42.7c2.9-3.7,8.3-4.3,12-1.3
	c3.7,2.9,4.3,8.3,1.3,12l-34.1,42.7C406,336.7,403.6,337.8,401.1,337.8z"/>
<path class="st1" d="M145.1,440.2H93.9c-4.7,0-8.5-3.8-8.5-8.5s3.8-8.5,8.5-8.5h51.2c9.4,0,17.1-7.7,17.1-17.1
	c0-9.4-7.7-17.1-17.1-17.1h-34.1c-18.8,0-34.1-15.3-34.1-34.1s15.3-34.1,34.1-34.1h51.2c4.7,0,8.5,3.8,8.5,8.5s-3.8,8.5-8.5,8.5
	h-51.2c-9.4,0-17.1,7.7-17.1,17.1c0,9.4,7.7,17.1,17.1,17.1h34.1c18.8,0,34.1,15.3,34.1,34.1S163.9,440.2,145.1,440.2z"/>
<path class="st1" d="M128,457.3c-4.7,0-8.5-3.8-8.5-8.5V312.2c0-4.7,3.8-8.5,8.5-8.5s8.5,3.8,8.5,8.5v136.5
	C136.5,453.4,132.7,457.3,128,457.3z"/>
<path class="st1" d="M128,508.5c-70.6,0-128-57.4-128-128c0-70.6,57.4-128,128-128s128,57.4,128,128C256,451,198.6,508.5,128,508.5z
	 M128,269.5c-61.2,0-110.9,49.8-110.9,110.9c0,61.2,49.8,110.9,110.9,110.9s110.9-49.8,110.9-110.9
	C238.9,319.3,189.2,269.5,128,269.5z"/>
<path class="st1" d="M486.4,226.9H281.6c-4.7,0-8.5-3.8-8.5-8.5V98.9c0-4.7,3.8-8.5,8.5-8.5h204.8c4.7,0,8.5,3.8,8.5,8.5v119.5
	C494.9,223,491.1,226.9,486.4,226.9z M290.1,209.8h187.7V107.4H290.1V209.8z"/>
<path class="st1" d="M503.5,107.4H264.5c-4.7,0-8.5-3.8-8.5-8.5V64.7c0-4.7,3.8-8.5,8.5-8.5h238.9c4.7,0,8.5,3.8,8.5,8.5v34.1
	C512,103.6,508.2,107.4,503.5,107.4z M273.1,90.3h221.9V73.3H273.1V90.3z"/>
<path class="st1" d="M401.1,73.3h-34.1c-14.1,0-25.6-11.5-25.6-25.6c0-14.1,11.5-25.6,25.6-25.6h34.1c14.1,0,25.6,11.5,25.6,25.6
	C426.7,61.8,415.2,73.3,401.1,73.3z M366.9,39.1c-4.7,0-8.5,3.8-8.5,8.5c0,4.7,3.8,8.5,8.5,8.5h34.1c4.7,0,8.5-3.8,8.5-8.5
	c0-4.7-3.8-8.5-8.5-8.5H366.9z"/>
<path class="st1" d="M486.4,73.3h-82.9c-4.7,0-8.5-3.8-8.5-8.5c0-4.2,3.1-8.1,7.3-8.7c4.2-0.6,7.3-4.1,7.3-8.4c0-3.6-2.3-6.8-5.8-8
	c-2.6-0.9-4.5-3-5.3-5.5c-0.8-2.6-0.3-5.4,1.3-7.6c6-8,20.1-21.5,47.6-21.5c10.9,0,20.7,3.2,29.1,9.6c11.5,8.7,18.4,22.9,18.4,38
	v12.1C494.9,69.4,491.1,73.3,486.4,73.3z M403.5,64.5L403.5,64.5L403.5,64.5z M425.2,56.2h52.7v-3.6c0-9.8-4.4-18.9-11.7-24.4
	c-5.4-4.1-11.7-6.1-18.8-6.1c-13.2,0-22,4-27.6,8.3c4.3,4.6,6.8,10.8,6.8,17.3C426.7,50.6,426.1,53.5,425.2,56.2z"/>
<path class="st1" d="M364.5,73.3h-82.9c-4.7,0-8.5-3.8-8.5-8.5V52.6c0-15.1,6.9-29.3,18.4-38c8.4-6.4,18.2-9.6,29.1-9.6
	c27.5,0,41.6,13.5,47.6,21.5c1.6,2.2,2.1,5,1.3,7.6c-0.8,2.6-2.8,4.7-5.3,5.5c-3.4,1.2-5.8,4.4-5.8,8c0,4.2,3.1,7.8,7.3,8.4
	c4.2,0.6,7.3,4.2,7.3,8.4C373,69.2,369.2,73.3,364.5,73.3z M290.1,56.2h52.7c-1-2.7-1.5-5.6-1.5-8.5c0-6.6,2.5-12.7,6.8-17.3
	c-5.6-4.3-14.3-8.3-27.6-8.3c-7.1,0-13.4,2.1-18.8,6.1c-7.3,5.5-11.7,14.6-11.7,24.4V56.2z"/>
<path class="st1" d="M409.6,226.9h-51.2c-4.7,0-8.5-3.8-8.5-8.5V98.9c0-4.7,3.8-8.5,8.5-8.5h51.2c4.7,0,8.5,3.8,8.5,8.5v119.5
	C418.1,223,414.3,226.9,409.6,226.9z M366.9,209.8h34.1V107.4h-34.1V209.8z"/>
</svg>
