<svg xmlns="http://www.w3.org/2000/svg" viewBox="0 0 320.87 358.28"><title>rocket_service_1</title><g id="Layer_2" data-name="Layer 2"><g id="rocket"><rect x="16.5" y="49.28" width="300" height="309" rx="56.59" ry="56.59" style="fill:#c4252d;opacity:0.07"/><path d="M260.41,357.78H73.59A56.76,56.76,0,0,1,17,301.18V291.11s64-18.33,150-19.33c88.45-1,150,23.23,150,23.23v6.17A56.76,56.76,0,0,1,260.41,357.78Z" style="fill:#dae2f3"/><circle cx="272.98" cy="110.06" r="31.13" style="fill:none;stroke:#005d8a;stroke-miterlimit:10;stroke-width:5px"/><path d="M280.2,89.16s14.7,5.11,14.48,21.52" style="fill:none;stroke:#005d8a;stroke-miterlimit:10;stroke-width:5px"/><polyline points="256.77 217.48 257.87 233.06 207.52 215.55 218.05 204.01" style="fill:none;stroke:#005d8a;stroke-miterlimit:10;stroke-width:5px"/><line x1="209.6" y1="229.17" x2="199.37" y2="258.57" style="fill:none;stroke:#005d8a;stroke-miterlimit:10;stroke-width:3px"/><line x1="215.99" y1="242.37" x2="204.06" y2="276.67" style="fill:none;stroke:#005d8a;stroke-miterlimit:10;stroke-width:3px"/><line x1="229.49" y1="233.88" x2="226.08" y2="243.68" style="fill:none;stroke:#005d8a;stroke-miterlimit:10;stroke-width:3px"/><line x1="222.38" y1="255.58" x2="212.16" y2="284.98" style="fill:none;stroke:#005d8a;stroke-miterlimit:10;stroke-width:3px"/><line x1="242.19" y1="245.99" x2="237.08" y2="260.69" style="fill:none;stroke:#005d8a;stroke-miterlimit:10;stroke-width:3px"/><line x1="235.38" y1="265.59" x2="228.56" y2="285.19" style="fill:none;stroke:#005d8a;stroke-miterlimit:10;stroke-width:3px"/><path d="M145.61,249.28s-4.5,0-5.92,1.39c-7.69,7.55-5.37,13.09-5.37,13.09s-8.24-4.15-14.07,2.63S122,280.85,122,280.85s-.69,3.54,2.16,7.77a31.11,31.11,0,0,0,4.55,5.68" style="fill:none;stroke:#005d8a;stroke-miterlimit:10;stroke-width:5px"/><path d="M190.3,263.65a10.77,10.77,0,0,0-5.29-4.89c-3.8-1.62-3.64-2.61-3.64-2.61s-3.84-7.7-12.37-5-7.65,9.92-7.65,9.92-3.85,2.48-4.9,5.29a9.16,9.16,0,0,0,.72,8.22" style="fill:none;stroke:#005d8a;stroke-miterlimit:10;stroke-width:5px"/><path d="M249,266.49c4.11.36,11.46-5.55,17.7.86s4.24,17.4,5.75,20c2.59,4.44,13,6.9,17.25,11.3,6.24,6.4-.82,14.53-.82,14.53s.9,3.49-1.68,7.89A31.39,31.39,0,0,1,283,327" style="fill:none;stroke:#005d8a;stroke-miterlimit:10;stroke-width:5px"/><path d="M213.76,200.25,239.25,87.36s1.4-10.1,5.91-17,61.1-53.93,61.1-53.93L308.85,12l-.7,5.05,10.11,74.45s1.15,8.87-4.06,20.82S261,216.67,261,216.67Z" style="fill:none;stroke:#005d8a;stroke-miterlimit:10;stroke-width:5px"/><polyline points="218.44 156.35 192.65 169.62 162.23 223.62 213.31 186.33" style="fill:none;stroke:#005d8a;stroke-miterlimit:10;stroke-width:5px"/><polyline points="283.61 179.01 295.61 205.42 285.96 266.65 269.04 205.71" style="fill:none;stroke:#005d8a;stroke-miterlimit:10;stroke-width:5px"/><line x1="210.23" y1="290.53" x2="207.25" y2="299.1" style="fill:none;stroke:#005d8a;stroke-miterlimit:10;stroke-width:3px"/><line x1="206.29" y1="301.86" x2="205.61" y2="303.82" style="fill:none;stroke:#005d8a;stroke-miterlimit:10;stroke-width:3px"/><line x1="204.32" y1="307.53" x2="203.64" y2="309.49" style="fill:none;stroke:#005d8a;stroke-miterlimit:10;stroke-width:3px"/><line x1="208.59" y1="295.25" x2="207.91" y2="297.21" style="fill:none;stroke:#005d8a;stroke-miterlimit:10;stroke-width:3px"/><line x1="207.6" y1="298.08" x2="206.92" y2="300.04" style="fill:none;stroke:#005d8a;stroke-miterlimit:10;stroke-width:3px"/><line x1="228.3" y1="287.28" x2="227.62" y2="289.24" style="fill:none;stroke:#005d8a;stroke-miterlimit:10;stroke-width:3px"/><line x1="226.33" y1="292.95" x2="225.65" y2="294.9" style="fill:none;stroke:#005d8a;stroke-miterlimit:10;stroke-width:3px"/><circle cx="71" cy="84.78" r="3" style="fill:#005d8a"/><circle cx="109.5" cy="77.28" r="2.5" style="fill:#005d8a"/><circle cx="82" cy="125.78" r="1" style="fill:#005d8a"/><circle cx="108" cy="94.78" r="1" style="fill:#005d8a"/><circle cx="125" cy="75.78" r="1" style="fill:#005d8a"/><circle cx="65" cy="110.78" r="2" style="fill:#005d8a"/><circle cx="10" cy="100.78" r="3" style="fill:#005d8a"/><circle cx="2.5" cy="62.28" r="2.5" style="fill:#005d8a"/><circle cx="51" cy="89.78" r="1" style="fill:#005d8a"/><circle cx="20" cy="63.78" r="1" style="fill:#005d8a"/><circle cx="1" cy="46.78" r="1" style="fill:#005d8a"/><circle cx="36" cy="106.78" r="2" style="fill:#005d8a"/></g></g></svg>