<svg xmlns="http://www.w3.org/2000/svg" viewBox="0 0 317.37 344"><title>regional_service</title><g id="Layer_2" data-name="Layer 2"><g id="Layer_3" data-name="Layer 3"><rect x="17.37" width="300" height="309" rx="56.59" ry="56.59" style="fill:#c4252d;opacity:0.07"/><circle cx="262.87" cy="103.5" r="3" style="fill:#005d8a"/><circle cx="228.37" cy="72" r="2.5" style="fill:#005d8a"/><circle cx="249.87" cy="122.5" r="1" style="fill:#005d8a"/><circle cx="275.87" cy="91.5" r="1" style="fill:#005d8a"/><circle cx="292.87" cy="72.5" r="1" style="fill:#005d8a"/><circle cx="232.87" cy="107.5" r="2" style="fill:#005d8a"/><circle cx="177.87" cy="97.5" r="3" style="fill:#005d8a"/><circle cx="170.37" cy="59" r="2.5" style="fill:#005d8a"/><circle cx="218.87" cy="86.5" r="1" style="fill:#005d8a"/><circle cx="187.87" cy="60.5" r="1" style="fill:#005d8a"/><circle cx="168.87" cy="43.5" r="1" style="fill:#005d8a"/><circle cx="205.87" cy="117.5" r="2" style="fill:#005d8a"/><path d="M95.78,82.79C71.59,90,52.46,104.89,36.13,123.31,17.7,144.09,7.58,168.65,3.78,196.42c-5.66,41.34,7.68,76.25,35,105.87,17.59,19.07,40.27,30.58,66.2,35.86,13.79,2.81,27.56,4.08,41.29,2.92,49.19-4.15,97.79-27,117-91.6,4.4-14.77,6.5-30.07,5-45.43a134,134,0,0,0-28.46-70.76A161.6,161.6,0,0,0,184.93,88c-17.44-8.78-36-13.76-55.43-6-4.5,1.81-9.39,4.13-12.48,7.64-6.59,7.47-7,13.61-1,22.53a70.4,70.4,0,0,0,5.85,6.77" style="fill:none;stroke:#005d8a;stroke-miterlimit:10;stroke-width:5px"/><path d="M100,165.3c6.17,2.52,12.19,6.61,18.55,7.24,12,1.17,24.14.84,36.16.11,5.67-.34,11.62-2.85,12.53-9.89.58-4.43-5.86-9.73-13.36-9.95-18.17-.52-36.06,1.13-52.22,10.78a13.63,13.63,0,0,1-4.2,1.67C80.3,168.69,69.91,180.2,64.9,195.7c-6.07,18.79-.78,26.3,14.94,30.83,17.13,4.94,22.17,14.76,25.34,32.2,2.06,11.36,4.2,23,8.59,33.57,6,14.55,18.07,15.49,26.31,2.46,5.36-8.47,10.26-16.7,17.85-23.55,8.63-7.8,8.59-20,12.87-30.1a24.85,24.85,0,0,0-1.31-21.73c-3.66-6.79-9.8-12.56-15.82-17.64-3-2.54-8.43-4.51-11.94,1.58,5.39,10.93,14.12,18.2,24.8,23.38.91.44,2.22.06,3.34.06" style="fill:none;stroke:#005d8a;stroke-miterlimit:10;stroke-width:5px"/><path d="M206.91,204c-3.52,18.71-14.23,27.78-32.83,27.78" style="fill:none;stroke:#005d8a;stroke-miterlimit:10;stroke-width:5px"/><path d="M121,120.67c-3.33,2.67-6.06,4.87-11.1,1.94a38.41,38.41,0,0,0-16.71-5c-3.83-.2-9.63,2-11.33,5-2.39,4.15.4,7.37,6.24,8.46,6,1.13,7,6.56,2.53,11.44S81.16,152.13,75.26,158l12.94,8.11" style="fill:none;stroke:#005d8a;stroke-miterlimit:10;stroke-width:5px"/><path d="M207.76,200.66c5.33-.84,10.63-2.14,16-2.44,17.16-1,25.89,7.62,26.09,25.17,0,.84,0,1.68,0,2.53" style="fill:none;stroke:#005d8a;stroke-miterlimit:10;stroke-width:5px"/><path d="M164.82,263.8h7.57c2,0,5.05-.74,5.66.17,1.12,1.68,1.84,5,.9,6.45-4.18,6.5-9,12.59-13.59,18.83l-2.72-.56-5.4-13.94" style="fill:none;stroke:#005d8a;stroke-miterlimit:10;stroke-width:5px"/></g></g></svg>