<?xml version="1.0" encoding="utf-8"?>
<!-- Generator: Adobe Illustrator 22.1.0, SVG Export Plug-In . SVG Version: 6.00 Build 0)  -->
<svg version="1.1" id="Layer_1" xmlns="http://www.w3.org/2000/svg" xmlns:xlink="http://www.w3.org/1999/xlink" x="0px" y="0px"
	 viewBox="0 0 496 496" style="enable-background:new 0 0 496 496;" xml:space="preserve">
<style type="text/css">
	.st0{fill:#BEF2EF;}
	.st1{fill:#283E4E;}
</style>
<path class="st0" d="M400,305.3V144.5H96v160.8c18.3,3.7,32,19.8,32,39.2v16c0,13-6.3,24.5-16,31.8v24.2l38.6,11
	c10.3,2.9,17.4,12.4,17.4,23.1c0-10.7,7.1-20.1,17.4-23.1l38.6-11v-24.2c-9.7-7.3-16-18.8-16-31.8v-16c0-22.1,17.9-40,40-40
	s40,17.9,40,40v16c0,13-6.3,24.5-16,31.8v24.2l38.6,11c10.3,2.9,17.4,12.4,17.4,23.1c0-10.7,7.1-20.1,17.4-23.1l38.6-11v-24.2
	c-9.7-7.3-16-18.8-16-31.8v-16C368,325.1,381.7,309,400,305.3z M200,216.5h-32v-32c0-8.8,7.2-16,16-16s16,7.2,16,16V216.5z
	 M263.2,266l-1.1,14.5l-14.1-3.4l-14.1,3.4l-1.1-14.5l-7.6-12.4l13.4-5.5l9.4-11.1l9.4,11.1l13.4,5.5L263.2,266z"/>
<path class="st1" d="M472.8,419.8l-32.8-9.4v-14.3c9.8-8.8,16-21.5,16-35.7v-16c0-26.5-21.5-48-48-48v-152h16v-48h-72V67.8
	l31.8-11.4L248,8L112.2,56.5L144,67.8v28.6H72v48h16v152c-26.5,0-48,21.5-48,48v16c0,14.2,6.2,26.9,16,35.7v14.3l-32.8,9.4
	C9.5,423.7,0,436.4,0,450.6v37.9h496v-37.9C496,436.4,486.5,423.7,472.8,419.8z M424,414.3c-2,3.1-7.5,10.2-16,10.2s-14-7.1-16-10.2
	v-8.6c5,1.8,10.4,2.8,16,2.8s11-1,16-2.8V414.3z M440,344.5v16c0,17.6-14.4,32-32,32s-32-14.4-32-32v-16c0-17.6,14.4-32,32-32
	S440,326.8,440,344.5z M240,102.1v31.3l-48-16V85L240,102.1z M256,102.1l80-28.6v33.2l-80,26.7V102.1z M248,25l88.2,31.5L248,88
	l-42.3-15.1L250.8,56l-5.6-15l-62.8,23.6l-22.6-8.1L248,25z M176,79.3v32.8l-16-5.3V73.6L176,79.3z M104,144.5h16v32h16v-48H88v-16
	h56v5.8l32,10.7v33c-9.3,3.3-16,12.1-16,22.5v40h48v-40c0-10.4-6.7-19.2-16-22.5v-27.7l56,18.7l104-34.7v-5.8h56v16h-48v48h16v-32
	h16v154.8c-18.6,6.6-32,24.3-32,45.2v16c0,14.2,6.2,26.9,16,35.7v14.3l-32.8,9.4c-6.1,1.7-11.2,5.3-15.2,9.8
	c-4-4.6-9.1-8.1-15.2-9.8l-32.8-9.4v-14.3c9.8-8.8,16-21.5,16-35.7v-16c0-26.5-21.5-48-48-48s-48,21.5-48,48v16
	c0,14.2,6.2,26.9,16,35.7v14.3l-32.8,9.4c-6.1,1.7-11.2,5.3-15.2,9.8c-4-4.6-9.1-8.1-15.2-9.8l-32.8-9.4v-14.3
	c9.8-8.8,16-21.5,16-35.7v-16c0-20.9-13.4-38.6-32-45.2V144.5z M192,184.5v24h-16v-24c0-4.4,3.6-8,8-8S192,180.1,192,184.5z
	 M320,472.5H176v-21.9c0-7.1,4.8-13.4,11.6-15.4l33-9.4c4.6,6,13.7,14.7,27.4,14.7s22.8-8.6,27.4-14.7l33,9.4
	c6.8,2,11.6,8.3,11.6,15.4V472.5z M248,392.5c-17.6,0-32-14.4-32-32v-16c0-17.6,14.4-32,32-32s32,14.4,32,32v16
	C280,378.1,265.6,392.5,248,392.5z M248,408.5c5.6,0,11-1,16-2.8v8.6c-2,3.1-7.5,10.2-16,10.2s-14-7.1-16-10.2v-8.6
	C237,407.5,242.4,408.5,248,408.5z M56,344.5c0-17.6,14.4-32,32-32s32,14.4,32,32v16c0,17.6-14.4,32-32,32s-32-14.4-32-32V344.5z
	 M88,408.5c5.6,0,11-1,16-2.8v8.6c-2,3.1-7.5,10.2-16,10.2s-14-7.1-16-10.2v-8.6C77,407.5,82.4,408.5,88,408.5z M16,450.6
	c0-7.1,4.8-13.4,11.6-15.4l33-9.4c4.6,6,13.7,14.7,27.4,14.7s22.8-8.6,27.4-14.7l33,9.4c6.8,2,11.6,8.3,11.6,15.4v21.9H16V450.6z
	 M480,472.5H336v-21.9c0-7.1,4.8-13.4,11.6-15.4l33-9.4c4.6,6,13.7,14.7,27.4,14.7s22.8-8.6,27.4-14.7l33,9.4
	c6.8,2,11.6,8.3,11.6,15.4V472.5z"/>
<path class="st1" d="M360,192.5h16v16h-16V192.5z"/>
<path class="st1" d="M360,224.5h16v16h-16V224.5z"/>
<path class="st1" d="M328,144.5h16v128h-16V144.5z"/>
<path class="st1" d="M296,152.5h16v16h-16V152.5z"/>
<path class="st1" d="M296,184.5h16v16h-16V184.5z"/>
<path class="st1" d="M296,216.5h16v88h-16V216.5z"/>
<path class="st1" d="M120,192.5h16v16h-16V192.5z"/>
<path class="st1" d="M120,224.5h16v16h-16V224.5z"/>
<path class="st1" d="M184,240.5h16v64h-16V240.5z"/>
<path class="st1" d="M152,240.5h16v32h-16V240.5z"/>
<path class="st1" d="M226.6,290.5l21.4-5.2l21.4,5.2l1.7-21.9l11.5-18.7l-20.3-8.4L248,224.7l-14.2,16.7l-20.3,8.4l11.5,18.7
	L226.6,290.5z M243.4,254.8l4.6-5.4l4.6,5.4l6.5,2.7l-3.7,6l-0.5,7l-6.8-1.7l-6.8,1.7l-0.5-7l-3.7-6L243.4,254.8z"/>
<path class="st1" d="M240,168.5h16v16h-16V168.5z"/>
<path class="st1" d="M240,200.5h16v16h-16V200.5z"/>
</svg>
