<svg xmlns="http://www.w3.org/2000/svg" viewBox="0 0 324 350.5"><title>sme_service_1</title><g id="Layer_2" data-name="Layer 2"><g id="lightbulb"><rect y="41.5" width="300" height="309" rx="56.59" ry="56.59" style="fill:#c4252d;opacity:0.07"/><circle cx="202.22" cy="48.97" r="3.77" style="fill:#005d8a"/><circle cx="216.03" cy="100.45" r="1.26" style="fill:#005d8a"/><circle cx="194.68" cy="81.61" r="2.51" style="fill:#005d8a"/><circle cx="125.63" cy="69.06" r="3.77" style="fill:#005d8a"/><circle cx="116.21" cy="20.72" r="3.14" style="fill:#005d8a"/><circle cx="177.11" cy="55.25" r="1.26" style="fill:#005d8a"/><circle cx="138.18" cy="22.6" r="1.26" style="fill:#005d8a"/><circle cx="114.33" cy="1.26" r="1.26" style="fill:#005d8a"/><circle cx="158.27" cy="76.59" r="2.51" style="fill:#005d8a"/><path d="M221,241.7s-1-28-8.87-39.86-30-23-28.07-69.37c1.21-29.56,28.27-65.3,68.48-65.3,37.46,0,69,36.48,69,71.11,0,42-30.56,53.87-34.5,65.72-2,6.07-6.9,37.7-6.9,37.7Z" style="fill:none;stroke:#005d8a;stroke-miterlimit:10;stroke-width:5px"/><line x1="222.31" y1="258.65" x2="278.81" y2="258.65" style="fill:none;stroke:#005d8a;stroke-miterlimit:10;stroke-width:5px"/><line x1="232.35" y1="269.96" x2="261.23" y2="269.96" style="fill:none;stroke:#005d8a;stroke-miterlimit:10;stroke-width:5px"/><line x1="234.86" y1="280" x2="248.67" y2="280" style="fill:none;stroke:#005d8a;stroke-miterlimit:10;stroke-width:5px"/><path d="M233,191.48s45.2-10,38.92-22.6S233,172.65,228,157.58s45.2-18.84,43.94-32.65-15.06-20.09-15.06-20.09" style="fill:none;stroke:#005d8a;stroke-miterlimit:10;stroke-width:5px"/><path d="M283.2,91s28.88,15.07,27.63,52.74" style="fill:none;stroke:#005d8a;stroke-miterlimit:10;stroke-width:5px"/><circle cx="123.17" cy="183.32" r="1.49" style="fill:#005d8a"/><circle cx="112.65" cy="213.75" r="0.5" style="fill:#005d8a"/><circle cx="113.18" cy="197.28" r="1" style="fill:#005d8a"/><path d="M114.6,269.8s-.39-11.11-3.52-15.81-11.89-9.13-11.14-27.53c.48-11.73,11.22-25.91,27.18-25.91,14.86,0,27.38,14.47,27.38,28.21,0,16.68-12.13,21.38-13.69,26.08-.8,2.41-2.74,15-2.74,15Z" style="fill:none;stroke:#005d8a;stroke-miterlimit:10;stroke-width:5px"/><line x1="118.12" y1="279.01" x2="135.5" y2="279.01" style="fill:none;stroke:#005d8a;stroke-miterlimit:10;stroke-width:5px"/><line x1="120.12" y1="289" x2="125.6" y2="289" style="fill:none;stroke:#005d8a;stroke-miterlimit:10;stroke-width:5px"/><path d="M119.37,250.87s17.94-4,15.45-9-15.45,1.49-17.44-4.49,17.94-7.47,17.44-12.95-6-8-6-8" style="fill:none;stroke:#005d8a;stroke-miterlimit:10;stroke-width:5px"/><path d="M135.3,211s11.46,6,11,20.93" style="fill:none;stroke:#005d8a;stroke-miterlimit:10;stroke-width:3px"/><circle cx="139.27" cy="186.59" r="2.51" style="fill:#005d8a"/></g></g></svg>