<?xml version="1.0" encoding="utf-8"?>
<!-- Generator: Adobe Illustrator 22.1.0, SVG Export Plug-In . SVG Version: 6.00 Build 0)  -->
<svg version="1.1" id="Capa_1" xmlns="http://www.w3.org/2000/svg" xmlns:xlink="http://www.w3.org/1999/xlink" x="0px" y="0px"
	 viewBox="0 0 512 512" style="enable-background:new 0 0 512 512;" xml:space="preserve">
<style type="text/css">
	.st0{fill:#BEF2EF;}
	.st1{fill:#283E4E;}
</style>
<path class="st0" d="M145.1,162.1l221.9,5.9c0,0-25.6-99.2-103.2-103.2C166,59.7,145.1,162.1,145.1,162.1z"/>
<g>
	<g>
		<path class="st1" d="M460.8,315.7H51.2c-4.7,0-8.5,3.8-8.5,8.5v179.2c0,4.7,3.8,8.5,8.5,8.5h409.6c4.7,0,8.5-3.8,8.5-8.5V324.3
			C469.3,319.5,465.5,315.7,460.8,315.7z M452.3,494.9H59.7V332.8h392.5L452.3,494.9L452.3,494.9z"/>
	</g>
</g>
<g>
	<g>
		<path class="st1" d="M358.4,315.7H153.6c-4.7,0-8.5,3.8-8.5,8.5v179.2c0,4.7,3.8,8.5,8.5,8.5h204.8c4.7,0,8.5-3.8,8.5-8.5V324.3
			C366.9,319.5,363.1,315.7,358.4,315.7z M349.9,494.9H162.1V332.8h187.7L349.9,494.9L349.9,494.9z"/>
	</g>
</g>
<g>
	<g>
		<path class="st1" d="M401.1,162.1H110.9c-4.7,0-8.5,3.8-8.5,8.5v153.6c0,4.7,3.8,8.5,8.5,8.5h290.1c4.7,0,8.5-3.8,8.5-8.5V170.7
			C409.6,166,405.8,162.1,401.1,162.1z M392.5,315.7H119.5V179.2h273.1L392.5,315.7L392.5,315.7z"/>
	</g>
</g>
<g>
	<g>
		<path class="st1" d="M264.5,59.7h-17.1c-61.2,0-110.9,49.8-110.9,110.9c0,4.7,3.8,8.5,8.5,8.5h221.9c4.7,0,8.5-3.8,8.5-8.5
			C375.5,109.5,325.7,59.7,264.5,59.7z M154,162.1c4.3-47.8,44.6-85.3,93.5-85.3h17.1c48.9,0,89.2,37.6,93.5,85.3H154z"/>
	</g>
</g>
<g>
	<g>
		<rect x="247.5" class="st1" width="17.1" height="68.3"/>
	</g>
</g>
<g>
	<g>
		<path class="st1" d="M196.3,384c-14.1,0-25.6,11.5-25.6,25.6v93.9c0,4.7,3.8,8.5,8.5,8.5h34.1c4.7,0,8.5-3.8,8.5-8.5v-93.9
			C221.9,395.5,210.4,384,196.3,384z M204.8,494.9h-17.1v-85.3c0-4.7,3.8-8.5,8.5-8.5c4.7,0,8.5,3.8,8.5,8.5L204.8,494.9
			L204.8,494.9z"/>
	</g>
</g>
<g>
	<g>
		<path class="st1" d="M256,384c-14.1,0-25.6,11.5-25.6,25.6v93.9c0,4.7,3.8,8.5,8.5,8.5h34.1c4.7,0,8.5-3.8,8.5-8.5v-93.9
			C281.6,395.5,270.1,384,256,384z M264.5,494.9h-17.1v-85.3c0-4.7,3.8-8.5,8.5-8.5c4.7,0,8.5,3.8,8.5,8.5L264.5,494.9L264.5,494.9z
			"/>
	</g>
</g>
<g>
	<g>
		<path class="st1" d="M315.7,384c-14.1,0-25.6,11.5-25.6,25.6v93.9c0,4.7,3.8,8.5,8.5,8.5h34.1c4.7,0,8.5-3.8,8.5-8.5v-93.9
			C341.3,395.5,329.8,384,315.7,384z M324.3,494.9h-17.1v-85.3c0-4.7,3.8-8.5,8.5-8.5s8.5,3.8,8.5,8.5L324.3,494.9L324.3,494.9z"/>
	</g>
</g>
<g>
	<g>
		<path class="st1" d="M102.4,358.4c-14.1,0-25.6,11.5-25.6,25.6v119.5c0,4.7,3.8,8.5,8.5,8.5h34.1c4.7,0,8.5-3.8,8.5-8.5V384
			C128,369.9,116.5,358.4,102.4,358.4z M110.9,494.9H93.9V384c0-4.7,3.8-8.5,8.5-8.5c4.7,0,8.5,3.8,8.5,8.5
			C110.9,384,110.9,494.9,110.9,494.9z"/>
	</g>
</g>
<g>
	<g>
		<path class="st1" d="M409.6,358.4c-14.1,0-25.6,11.5-25.6,25.6v119.5c0,4.7,3.8,8.5,8.5,8.5h34.1c4.7,0,8.5-3.8,8.5-8.5V384
			C435.2,369.9,423.7,358.4,409.6,358.4z M418.1,494.9h-17.1V384c0-4.7,3.8-8.5,8.5-8.5s8.5,3.8,8.5,8.5L418.1,494.9L418.1,494.9z"
			/>
	</g>
</g>
<g>
	<g>
		<path class="st1" d="M315.7,0H256c-4.7,0-8.5,3.8-8.5,8.5v34.1c0,4.7,3.8,8.5,8.5,8.5h59.7c4.7,0,8.5-3.8,8.5-8.5V8.5
			C324.3,3.8,320.5,0,315.7,0z M307.2,34.1h-42.7V17.1h42.7V34.1z"/>
	</g>
</g>
<g>
	<g>
		<path class="st1" d="M371.6,317.1l-110.9-73.2c-2.8-1.9-6.6-1.9-9.4,0l-110.9,73.2c-3.1,2.1-4.6,6-3.5,9.6
			c1.1,3.6,4.4,6.1,8.2,6.1h221.9c3.8,0,7.1-2.5,8.2-6.1C376.2,323.1,374.8,319.2,371.6,317.1z M173.5,315.7l82.5-54.5l82.5,54.5
			L173.5,315.7L173.5,315.7z"/>
	</g>
</g>
<g>
	<g>
		<path class="st1" d="M170.7,196.3c-18.8,0-34.1,15.3-34.1,34.1v93.9c0,3.1,1.7,6,4.5,7.5c1.3,0.7,2.6,1,4,1c1.7,0,3.3-0.5,4.7-1.4
			l51.2-34.1c2.4-1.6,3.8-4.3,3.8-7.1v-59.7C204.8,211.6,189.5,196.3,170.7,196.3z M187.7,285.6l-34.1,22.8v-77.9
			c0-9.4,7.7-17.1,17.1-17.1c9.4,0,17.1,7.7,17.1,17.1L187.7,285.6L187.7,285.6z"/>
	</g>
</g>
<g>
	<g>
		<path class="st1" d="M256,196.3c-18.8,0-34.1,15.3-34.1,34.1v37.5c0,3.1,1.7,6,4.5,7.5c2.8,1.5,6.1,1.3,8.7-0.4l20.9-13.8
			l20.9,13.8c1.4,0.9,3.1,1.4,4.7,1.4c1.4,0,2.8-0.3,4-1c2.8-1.5,4.5-4.4,4.5-7.5v-37.5C290.1,211.6,274.8,196.3,256,196.3z
			 M273.1,252.1l-12.4-8.2c-1.4-0.9-3.1-1.4-4.7-1.4c-1.6,0-3.3,0.5-4.7,1.4l-12.4,8.2v-21.7c0-9.4,7.7-17.1,17.1-17.1
			c9.4,0,17.1,7.7,17.1,17.1V252.1z"/>
	</g>
</g>
<g>
	<g>
		<path class="st1" d="M341.3,196.3c-18.8,0-34.1,15.3-34.1,34.1v59.7c0,2.9,1.4,5.5,3.8,7.1l51.2,34.1c1.4,0.9,3.1,1.4,4.7,1.4
			c1.4,0,2.8-0.3,4-1c2.8-1.5,4.5-4.4,4.5-7.5v-93.9C375.5,211.6,360.2,196.3,341.3,196.3z M358.4,308.3l-34.1-22.8v-55.2
			c0-9.4,7.7-17.1,17.1-17.1c9.4,0,17.1,7.7,17.1,17.1L358.4,308.3L358.4,308.3z"/>
	</g>
</g>
<g>
	<g>
		<rect x="247.5" y="290.1" class="st1" width="17.1" height="17.1"/>
	</g>
</g>
</svg>
