<svg xmlns="http://www.w3.org/2000/svg" viewBox="0 0 552.2 645.91"><title>about_side_icons</title><g id="Layer_2" data-name="Layer 2"><g id="Layer_6" data-name="Layer 6"><path d="M26.79,578.32s49.4-32.62,56.62-40.25S97.48,512.32,108,513.31s26.11,4.83,32,6.56,45.3,12.14,61.1,12,23.36,3.27,23.36,3.27,6.54,13.59-3.78,16.08-42.15-4.17-53.25-5.39-40.52,7.29-40.52,7.29" style="fill:none;stroke:#005d8a;stroke-miterlimit:10;stroke-width:5px"/><path d="M68,621l28-32.49s16.87-16.29,22.27-12.94,65.57,10.3,65.57,10.3l48.62,3.74s14.3-14.38,23.82-14.88,39.76-38.26,39.76-38.26l-3.16-6.06s-.77-15.74-13.56-9.61-7.8-5.61-19,2.78S226.63,540,226.63,540" style="fill:none;stroke:#005d8a;stroke-miterlimit:10;stroke-width:5px"/><path d="M130.17,428.11l.39-4.86s-3.57-2.22-4.45-5-4.41-10.28,0-17.91S142,393.2,145,401.52s.86,11.22-.83,15.17a28.81,28.81,0,0,1-5,7.44s-.74,3.37.47,4,14,6.34,14,6.34a9,9,0,0,1,5.14,5.15c1.51,3.95,3.12,43.12,3.12,43.12s-3.63,5.48-6.28,2.35c-1.79-2.12-4.47-17.41-4.47-17.41s.48,16.49.09,19.2c-1.32,9.11-.49,35.18-.49,35.18l-14-3.32-.1-33.73h-3.12v33.2l-16-4.87-.08-46.61L114.74,485s-10,3.91-9.59-1.58,6.28-45.8,6.28-45.8a7.92,7.92,0,0,1,4.71-4.78C120,431.3,130.17,428.11,130.17,428.11Z" style="fill:none;stroke:#005d8a;stroke-miterlimit:10;stroke-width:5px"/><path d="M236.08,46l-5.9,16.66s-4.58,7,1,20.15,8.47,22.09,10.92,24.69,21.68,10.49,21.68,10.49,9.39,4.55,12.26-1-6.48-10.81-6.48-10.81L259,102.67s-5-1.56-6.11-4.19C251.37,94.94,248.21,78,248.21,78l14.37,6.2,7.08,6.93s12.21-16.59,17.14-21.33c14.45-13.9,24.91-19.37,21.62-16.22L300.75,46l-6.26-14.13,17.32,4.2s7,4.55,8.47,8L330.8,68s.51,10.13,10.08,7l9.58-3.12-7.63-9.55-12.7-29.38s-3-5.49-7.17-7.49L295.05,11.86s-8.26-3.4-12.12-.86-21.54,8.76-21.54,8.76,16.61,2.53,19.89,8.33,7.54,24.48-2.08,34.35-31.25-.11-36-4.88-6.42-5.63-6.42-5.63Z" style="fill:none;stroke:#005d8a;stroke-miterlimit:10;stroke-width:5px"/><path d="M236.08,46s-4.37-27.12,25.31-26.19" style="fill:none;stroke:#005d8a;stroke-miterlimit:10;stroke-width:5px"/><circle cx="363.15" cy="145.65" r="107.62" style="fill:none;stroke:#005d8a;stroke-miterlimit:10;stroke-width:5px"/><path d="M335.51,305.14,353,302.33s8.37.64,17.21-10.54,15.31-18,16.42-21.42.23-34,.23-34S386.3,226,380,226.16,373.64,237,373.64,237l.64,20.79s1,5.13-.74,7.37c-2.38,3-15.72,13.93-15.72,13.93l-1.46-15.58,2.69-9.54s-20.42-2.75-26.94-4.8c-19.13-6-28.94-12.56-24.61-11.19l-2.94,10.36-9.39,12.27-4.63-17.22s.66-8.29,2.92-11.24l15.91-20.7s8.64-5.31,1.32-12.21l-7.33-6.9-4.72,11.28L279,228.89s-3.35,5.29-3.13,9.88l1.49,31s1,8.87,5.07,11,18,14.7,18,14.7-5.75-15.79-2.24-21.45S316,255.7,329.29,259.41s14.9,27.47,13,33.93-1.85,8.34-1.85,8.34Z" style="fill:none;stroke:#005d8a;stroke-miterlimit:10;stroke-width:5px"/><path d="M335.51,305.14S313.82,322,300.4,295.51" style="fill:none;stroke:#005d8a;stroke-miterlimit:10;stroke-width:5px"/><path d="M522.83,171l-2.92-17.43s.58-8.37-10.65-17.14-18.13-15.2-21.53-16.29-34,0-34,0-10.42.59-10.22,6.88,10.92,6.3,10.92,6.3l20.78-.78s5.12-1,7.38.7c3.05,2.37,14,15.64,14,15.64l-15.57,1.55-9.55-2.63s-2.63,20.43-4.64,27c-5.89,19.16-12.38,29-11,24.67l10.37,2.89,12.33,9.3-17.19,4.75s-8.29-.61-11.26-2.86l-20.79-15.78s-5.37-8.61-12.22-1.24l-6.86,7.37,11.31,4.65L446.92,228s5.31,3.32,9.9,3.08l31-1.69s8.87-1,11-5.13,14.58-18.11,14.58-18.11S497.66,212,492,208.51s-18.47-17.75-14.84-31S504.5,162.4,511,164.26s8.35,1.8,8.35,1.8Z" style="fill:none;stroke:#005d8a;stroke-miterlimit:10;stroke-width:5px"/><path d="M522.83,171s17,21.59-9.43,35.18" style="fill:none;stroke:#005d8a;stroke-miterlimit:10;stroke-width:5px"/><path d="M447.55,7.21,430.29,3.43s-7.56-3.65-19.88,3.51-20.85,11.18-23.12,13.93-12.64,31.52-12.64,31.52-3.33,9.88,2.58,12,9.91-7.79,9.91-7.79l7-19.58s.93-5.14,3.39-6.59c3.33-1.95,19.73-7.2,19.73-7.2l-4.35,15-6,7.89s18,10,23.31,14.33c15.6,12.6,22.33,22.28,18.8,19.42l6.53-8.56,13.23-8-2,17.72s-3.65,7.47-6.84,9.39l-22.38,13.44s-10,1.77-5.69,10.88l4.29,9.1,8.52-8.76,27.56-16.28s5.06-3.7,6.53-8l10-29.4s2.34-8.61-.67-12.13S476.7,29,476.7,29s-.42,16.79-5.76,20.78S447.59,60.35,436.6,52s-3.81-31,.32-36.34,4.78-7.08,4.78-7.08Z" style="fill:none;stroke:#005d8a;stroke-miterlimit:10;stroke-width:5px"/><path d="M447.55,7.21S473.91-.54,476.7,29" style="fill:none;stroke:#005d8a;stroke-miterlimit:10;stroke-width:5px"/><path d="M194.77,435.09l.38-4.85s-3.57-2.23-4.45-5-4.4-10.28,0-17.92,15.82-7.09,18.84,1.23.85,11.21-.83,15.17a28.57,28.57,0,0,1-5.05,7.43s-.73,3.38.48,4,14,6.35,14,6.35a9.07,9.07,0,0,1,5.15,5.15c1.5,4,3.11,43.12,3.11,43.12s-3.63,5.48-6.28,2.34c-1.79-2.11-4.46-17.41-4.46-17.41s.47,16.5.08,19.21c-1.32,9.11-.65,38-.65,38H201.08l.19-39.86h-3.12v39.79l-16-2.1-.09-56L179.34,492s-10,3.9-9.6-1.58S176,444.59,176,444.59a7.93,7.93,0,0,1,4.71-4.77C184.56,438.28,194.77,435.09,194.77,435.09Z" style="fill:none;stroke:#005d8a;stroke-miterlimit:10;stroke-width:5px"/><path d="M249.69,428.94l.39-4.86s-3.57-2.23-4.45-5-4.41-10.28,0-17.91,15.82-7.1,18.83,1.22.86,11.22-.83,15.17a28.81,28.81,0,0,1-5,7.44s-.74,3.37.47,4,14,6.34,14,6.34a9,9,0,0,1,5.14,5.15c1.51,3.95,3.12,43.12,3.12,43.12s-3.63,5.48-6.28,2.35c-1.79-2.12-4.47-17.41-4.47-17.41s.48,16.49.09,19.2c-1.32,9.11-.94,56.68-.94,56.68H255.73l.47-58.55h-3.12v58.64h-16L237,467.54l-2.69,18.28s-10,3.91-9.59-1.58S231,438.43,231,438.43a7.92,7.92,0,0,1,4.71-4.77C239.49,432.13,249.69,428.94,249.69,428.94Z" style="fill:none;stroke:#005d8a;stroke-miterlimit:10;stroke-width:4px"/><rect x="310.78" y="46.91" width="240.78" height="248" rx="56.59" ry="56.59" style="fill:#c4252d;opacity:0.07"/><rect y="397.91" width="240.78" height="248" rx="56.59" ry="56.59" style="fill:#c4252d;opacity:0.07"/><path d="M289.7,188.41s-37-41,11-103" style="fill:none;stroke:#005d8a;stroke-miterlimit:10;stroke-width:5px"/><path d="M66.7,601.41s30-31,42-36c3-1.25,29.51,4,36,5" style="fill:none;stroke:#005d8a;stroke-miterlimit:10;stroke-width:5px"/><path d="M101.7,531.41s1-7,6-9,13,2,13,2" style="fill:none;stroke:#005d8a;stroke-miterlimit:10;stroke-width:5px"/><path d="M249.7,437.41s-7.17,0-10.58,3.52-3.42,17.48-3.42,17.48" style="fill:none;stroke:#005d8a;stroke-miterlimit:10;stroke-width:5px"/><circle cx="521.2" cy="285.91" r="3" style="fill:#005d8a"/><circle cx="486.7" cy="254.41" r="2.5" style="fill:#005d8a"/><circle cx="508.2" cy="304.91" r="1" style="fill:#005d8a"/><circle cx="534.2" cy="273.91" r="1" style="fill:#005d8a"/><circle cx="551.2" cy="254.91" r="1" style="fill:#005d8a"/><circle cx="491.2" cy="289.91" r="2" style="fill:#005d8a"/><circle cx="436.2" cy="279.91" r="3" style="fill:#005d8a"/><circle cx="428.7" cy="241.41" r="2.5" style="fill:#005d8a"/><circle cx="477.2" cy="268.91" r="1" style="fill:#005d8a"/><circle cx="446.2" cy="242.91" r="1" style="fill:#005d8a"/><circle cx="427.2" cy="225.91" r="1" style="fill:#005d8a"/><circle cx="464.2" cy="299.91" r="2" style="fill:#005d8a"/><circle cx="122.2" cy="533.91" r="3" style="fill:#005d8a"/><circle cx="87.7" cy="502.41" r="2.5" style="fill:#005d8a"/><circle cx="109.2" cy="552.91" r="1" style="fill:#005d8a"/><circle cx="135.2" cy="521.91" r="1" style="fill:#005d8a"/><circle cx="152.2" cy="502.91" r="1" style="fill:#005d8a"/><circle cx="92.2" cy="537.91" r="2" style="fill:#005d8a"/><circle cx="37.2" cy="527.91" r="3" style="fill:#005d8a"/><circle cx="29.7" cy="489.41" r="2.5" style="fill:#005d8a"/><circle cx="78.2" cy="516.91" r="1" style="fill:#005d8a"/><circle cx="47.2" cy="490.91" r="1" style="fill:#005d8a"/><circle cx="28.2" cy="473.91" r="1" style="fill:#005d8a"/><circle cx="65.2" cy="547.91" r="2" style="fill:#005d8a"/></g></g></svg>