<?xml version="1.0" encoding="utf-8"?>
<!-- Generator: Adobe Illustrator 22.1.0, SVG Export Plug-In . SVG Version: 6.00 Build 0)  -->
<svg version="1.1" id="Layer_1" xmlns="http://www.w3.org/2000/svg" xmlns:xlink="http://www.w3.org/1999/xlink" x="0px" y="0px"
	 viewBox="0 0 480 480" style="enable-background:new 0 0 480 480;" xml:space="preserve">
<style type="text/css">
	.st0{fill:#BEF2EF;}
	.st1{fill:#283E4E;}
</style>
<rect x="344" y="345.9" class="st0" width="125.4" height="106.1"/>
<rect x="8" y="45.3" class="st0" width="148" height="128.7"/>
<circle class="st0" cx="399" cy="75.6" r="70.4"/>
<path class="st1" d="M344,296v-32c0-4.4-3.6-8-8-8s-8,3.6-8,8v32c0,4.4-3.6,8-8,8h-8c-4.4,0-8-3.6-8-8v-88h32c4.4,0,8-3.6,8-8v-32
	c0-17.7-14.3-32-32-32h-32.9c16.3-15.9,21.3-40.1,12.8-61.2c-8.6-21.1-29.1-34.9-51.9-34.9c-22.8,0-43.3,13.8-51.9,34.9
	c-8.6,21.1-3.5,45.3,12.8,61.2H184c-4.4,0-8,3.6-8,8c0,4.4,3.6,8,8,8h24v16c0,2.1,0.8,4.2,2.3,5.7l21.7,21.7V224c0,4.4,3.6,8,8,8
	s8-3.6,8-8v-28.7l21.7-21.7c1.5-1.5,2.3-3.5,2.3-5.7v-16h40c8.8,0,16,7.2,16,16v24h-32c-4.4,0-8,3.6-8,8v224h-40v-96
	c0-4.4-3.6-8-8-8s-8,3.6-8,8v96h-40V296h64c4.4,0,8-3.6,8-8s-3.6-8-8-8h-64v-80c0-4.4-3.6-8-8-8s-8,3.6-8,8v96c0,4.4-3.6,8-8,8h-8
	c-4.4,0-8-3.6-8-8v-80c0-4.4-3.6-8-8-8c-4.4,0-8,3.6-8,8v64h-32c-22.1,0-40,17.9-40,40v11.9l-15.6,11.2l-23,3.7
	c-3.4,0.5-6.1,3.2-6.6,6.6l-3.7,23L1.6,395.3c-2,2.8-2,6.6,0,9.4l13.6,18.9l3.7,23c0.5,3.4,3.2,6.1,6.6,6.6l23,3.7l18.9,13.6
	c2.8,2,6.6,2,9.4,0l18.9-13.6l23-3.7c3.4-0.5,6.1-3.2,6.6-6.6l3.7-23l13.6-18.9c2-2.8,2-6.6,0-9.4l-13.6-18.9l-3.7-23
	c-0.5-3.4-3.2-6.1-6.6-6.6l-23-3.7L80,331.9V320c0-13.3,10.7-24,24-24h32c0,13.3,10.7,24,24,24h8c2.7,0,5.4-0.5,8-1.5V456
	c0,13.3,10.7,24,24,24h24c5.9,0,11.6-2.2,16-6.2c4.4,4,10.1,6.2,16,6.2h24c13.3,0,24-10.7,24-24V318.5c2.6,0.9,5.3,1.4,8,1.5h8
	C333.3,320,344,309.3,344,296z M200,96c0-22.1,17.9-40,40-40c22.1,0,40,17.9,40,40c0,22.1-17.9,40-40,40C217.9,136,200,118.1,200,96
	z M256,164.7l-16,16l-16-16V152h32V164.7z M91.2,358.6l19.1,3.1l3.1,19.1c0.2,1.2,0.7,2.4,1.4,3.4l11.3,15.7l-11.3,15.7
	c-0.7,1-1.2,2.2-1.4,3.4l-3.1,19.1l-19.1,3.1c-1.2,0.2-2.4,0.7-3.4,1.4L72,454.1l-15.7-11.3c-1-0.7-2.2-1.2-3.4-1.4l-19.1-3.1
	l-3.1-19.1c-0.2-1.2-0.7-2.4-1.4-3.4L17.9,400l11.3-15.7c0.7-1,1.2-2.2,1.4-3.4l3.1-19.1l19.1-3.1c1.2-0.2,2.4-0.7,3.4-1.4L72,345.9
	l15.7,11.3C88.8,357.9,89.9,358.4,91.2,358.6z M224,464h-24c-4.4,0-8-3.6-8-8v-16h40v16C232,460.4,228.4,464,224,464z M288,456
	c0,4.4-3.6,8-8,8h-24c-4.4,0-8-3.6-8-8v-16h40V456z"/>
<path class="st1" d="M400,56c4.4,0,8,3.6,8,8s3.6,8,8,8s8-3.6,8-8c0-10.1-6.4-19.1-16-22.5V32c0-4.4-3.6-8-8-8s-8,3.6-8,8v9.5
	c-11,3.9-17.6,15.1-15.6,26.6c2,11.5,12,19.9,23.6,19.9c4.4,0,8,3.6,8,8c0,4.4-3.6,8-8,8s-8-3.6-8-8c0-4.4-3.6-8-8-8s-8,3.6-8,8
	c0,10.1,6.4,19.2,16,22.5v9.5c0,4.4,3.6,8,8,8s8-3.6,8-8v-9.5c11-3.9,17.6-15.1,15.6-26.6c-2-11.5-12-19.9-23.6-19.9
	c-4.4,0-8-3.6-8-8S395.6,56,400,56z"/>
<path class="st1" d="M392,159.6V200c0,13.3-10.7,24-24,24h-32c-4.4,0-8,3.6-8,8c0,4.4,3.6,8,8,8h32c22.1,0,40-17.9,40-40v-40.4
	c40.8-4.2,71.9-38.5,72-79.6c0-4.4-3.6-8-8-8s-8,3.6-8,8c0.1,31-21.9,57.6-52.4,63.3c-30.5,5.7-60.6-11.2-71.7-40.1
	c-11.1-28.9,0-61.6,26.4-77.8c26.4-16.2,60.6-11.2,81.3,11.9c1.9,2.2,4.8,3.2,7.6,2.6c2.8-0.6,5.1-2.6,6-5.4
	c0.9-2.7,0.2-5.8-1.7-7.9C435.7,0,397-7.6,364.8,8.1s-50,50.8-43.7,86C327.4,129.3,356.4,156.1,392,159.6z"/>
<path class="st1" d="M8,184.5h24V216c0,22.1,17.9,40,40,40h32c4.4,0,8-3.6,8-8s-3.6-8-8-8H72c-13.3,0-24-10.7-24-24v-31.5h104
	c4.4,0,8-3.6,8-8v-128c0-4.4-3.6-8-8-8h-30.2c8.9-9.4,8.7-24.2-0.4-33.4C111.9-2,97-2,87.5,7.1c-2.9,3.2-5.4,6.6-7.5,10.4
	c-2.1-3.7-4.6-7.2-7.5-10.4C63-2,48.1-2,38.6,7c-9.2,9.2-9.4,24-0.4,33.5H8c-4.4,0-8,3.6-8,8V104c0,4.4,3.6,8,8,8s8-3.6,8-8V56.5
	h31.4l-21.6,27C23,86.9,23.6,92,27,94.7c3.4,2.8,8.5,2.2,11.2-1.2L56,71.3v97.2H42.3c-0.7-0.3-1.5-0.4-2.2-0.5
	c-0.8,0-1.5,0.2-2.2,0.5H16V152c0-4.4-3.6-8-8-8s-8,3.6-8,8v24.5C0,180.9,3.6,184.5,8,184.5z M144,168.5h-40V71.3l17.7,22.2
	c2.8,3.4,7.8,4,11.2,1.2c3.4-2.8,4-7.8,1.2-11.2l-21.6-27H144V168.5z M104.5,16c3.2,0,6.2,1.9,7.4,4.9c1.2,3,0.6,6.4-1.7,8.7
	c-6.3,5.4-13.8,9.1-21.9,10.8H88c1.7-8.2,5.4-15.8,10.8-22.1C100.3,16.9,102.4,16,104.5,16z M49.9,18.4c3.1-3.1,8.2-3.1,11.3,0
	c5.4,6.3,9.1,14,10.8,22.1h-0.2c-8.1-1.7-15.6-5.4-21.9-10.8C46.8,26.5,46.8,21.5,49.9,18.4z M72,56.5h16v112H72V56.5z"/>
<path class="st1" d="M456,336c-4.4,0-8,3.6-8,8s3.6,8,8,8c4.4,0,8,3.6,8,8v72c0,4.4-3.6,8-8,8h-96c-4.4,0-8-3.6-8-8v-72
	c0-4.4,3.6-8,8-8h8c4.4,0,8-3.6,8-8v-28.7l34.3,34.3c3.1,3,8.1,3,11.2-0.1c3.1-3.1,3.1-8.1,0.1-11.2l-48-48c-2.3-2.3-5.7-3-8.7-1.7
	c-3,1.2-4.9,4.2-4.9,7.4v40c-13.3,0-24,10.7-24,24v72c0,13.3,10.7,24,24,24h96c13.3,0,24-10.7,24-24v-72
	C480,346.8,469.3,336,456,336z"/>
<path class="st1" d="M376,392h16c4.4,0,8-3.6,8-8s-3.6-8-8-8h-16c-4.4,0-8,3.6-8,8S371.6,392,376,392z"/>
<path class="st1" d="M448,384c0-4.4-3.6-8-8-8h-16c-4.4,0-8,3.6-8,8s3.6,8,8,8h16C444.4,392,448,388.4,448,384z"/>
<path class="st1" d="M376,424h48c4.4,0,8-3.6,8-8s-3.6-8-8-8h-48c-4.4,0-8,3.6-8,8S371.6,424,376,424z"/>
<path class="st1" d="M50.4,421.7c3.1,3.1,8.2,3.1,11.3,0l32-32c3-3.1,3-8.1-0.1-11.2c-3.1-3.1-8.1-3.1-11.2-0.1l-32,32
	C47.2,413.5,47.2,418.5,50.4,421.7z"/>
<path class="st1" d="M64,384c0,4.4-3.6,8-8,8s-8-3.6-8-8s3.6-8,8-8S64,379.6,64,384z"/>
<path class="st1" d="M96,416c0,4.4-3.6,8-8,8c-4.4,0-8-3.6-8-8s3.6-8,8-8C92.4,408,96,411.6,96,416z"/>
</svg>
