<svg height="512pt" viewBox="0 0 512 512" width="512pt" xmlns="http://www.w3.org/2000/svg"><g fill-rule="evenodd"><path d="m502 256c0 135.863281-110.136719 246-246 246s-246-110.136719-246-246 110.136719-246 246-246 246 110.136719 246 246zm0 0" fill="#1cd3fb"/><path d="m189.613281 305.40625c38.644531-3.363281 21.605469-30.605469 69.238281.675781 20.464844 13.4375 6.035157 26.246094 30.660157 29.9375 21.03125 3.15625 7.792969 5.296875 30.078125 25.335938 17.972656 16.164062 19.863281-2.570313 29.585937 4.789062 17.492188 13.246094 23.734375-3.242187 30.785157-2.9375 25.472656 1.089844 7.710937-19.636719 21.941406-27.582031 8.621094-4.816406 12.949218-14.992188 18.910156-25.34375 5.820312-10.109375 13.351562-20.367188 15.664062-28.007812 6.929688-22.902344-7.636718-63.328126-20.070312-81.960938-16.722656-25.070312-38.28125-43.691406-37.15625-55 4.207031-42.335938-14.65625-7.507812-14.65625-39.746094 0-36.214844-28.527344-33.734375-24.640625-2.148437 1.578125 12.839843-5.15625 18.957031-3.039063 26.671875 3.382813 12.328125-8.832031 25.335937-12.761718 21.667968-.449219-.421874-14.976563-12.726562-15.824219-13.195312-6.628906-3.691406-21.125-5.574219-22.34375-9.964844-2.300781-8.277344 3.476563-16.152344 7.1875-20.253906 11.570313-12.78125-33.800781-20.320312-41.273437-20.726562-10.890626-.589844-13.980469 5.789062-19.179688 9.496093-22.070312 15.71875-7.082031 9.855469-11.417969 26.714844-22.035156 9.726563-14.65625-9.097656-30.800781-8.464844-16.140625.636719-19.960938 29.289063-30.425781 23.949219-11.820313-6.03125-16.792969 8.074219-10.789063 13.5625 14.464844 13.238281-26.96875 36.210938-33.742187 37.550781-52.550781 10.386719-46.761719 29.609375-29.949219 75.886719 4.199219 11.5625 14.050781 23.382812 16.917969 32.996094 2.75 9.21875-1.417969 16.328125-.398438 23.195312 1.519531 10.226563 10.898438 12.109375 19.429688 12.398438 21.726562.742187 19.398437-19.152344 31.011719-14.363282 36.277343 14.964844 17.003906-13.386718 37.058593-15.132812zm0 0" fill="#009d86"/><path d="m367.125 399.949219c-10.507812-.761719-22.371094-4.082031-18.417969 8.175781 3.292969 10.222656 2.113281 16.328125 11.988281 23.445312 5.453126 3.933594 15.597657-1.273437 18.375-7.71875 3.699219-8.578124 6.757813-11.820312 5.085938-21.527343-1.285156-7.449219-7.726562-1.699219-17.03125-2.375zm0 0" fill="#009d86"/></g><path d="m393.523438 447.800781c-40.25 28.914063-87.804688 44.199219-137.523438 44.199219-130.132812 0-236-105.871094-236-236 0-49.71875 15.285156-97.273438 44.199219-137.523438 3.222656-4.484374 2.199219-10.730468-2.285157-13.953124-4.488281-3.226563-10.734374-2.199219-13.957031 2.285156-31.375 43.671875-47.957031 95.261718-47.957031 149.191406 0 68.378906 26.628906 132.667969 74.980469 181.019531 48.351562 48.351563 112.640625 74.980469 181.019531 74.980469 53.933594 0 105.519531-16.582031 149.191406-47.957031 4.484375-3.222657 5.507813-9.472657 2.285156-13.957031-3.21875-4.484376-9.464843-5.507813-13.953124-2.285157zm0 0"/><path d="m437.019531 74.980469c-48.351562-48.351563-112.640625-74.980469-181.019531-74.980469-53.925781 0-105.511719 16.582031-149.1875 47.953125-4.484375 3.222656-5.507812 9.472656-2.289062 13.957031 3.222656 4.484375 9.472656 5.511719 13.957031 2.289063 40.253906-28.917969 87.808593-44.199219 137.519531-44.199219 130.128906 0 236 105.871094 236 236 0 49.710938-15.28125 97.265625-44.195312 137.519531-3.222657 4.484375-2.199219 10.734375 2.285156 13.953125 1.769531 1.269532 3.808594 1.878906 5.828125 1.878906 3.109375 0 6.175781-1.445312 8.128906-4.164062 31.371094-43.675781 47.953125-95.265625 47.953125-149.1875 0-68.378906-26.628906-132.667969-74.980469-181.019531zm0 0"/><path d="m429.476562 315.273438c1.722657-2.988282 3.660157-6.085938 5.53125-9.082032 4.660157-7.445312 9.0625-14.480468 11.039063-21.023437 7.9375-26.238281-7.28125-69.367188-21.320313-90.410157-6.582031-9.867187-13.765624-18.632812-20.101562-26.367187-6.042969-7.371094-15.15625-18.492187-15.414062-22.1875 1.585937-15.976563 1.734374-31.726563-14.21875-34.425781-.199219-1.1875-.398438-3.140625-.398438-6.210938 0-16.789062-5.511719-29.304687-15.117188-34.339844-6.1875-3.242187-13.296874-2.8125-19.027343 1.148438-8.425781 5.832031-12.226563 17.589844-10.421875 32.261719.574218 4.664062-.414063 7.964843-1.5625 11.785156-1.316406 4.402344-2.960938 9.882813-1.195313 16.3125.691407 2.519531-.25 5.269531-1.429687 7.292969-4.652344-3.96875-11.023438-9.300782-12.648438-10.207032-3.507812-1.949218-7.84375-3.285156-12.03125-4.574218-1.667968-.511719-3.875-1.1875-5.550781-1.804688.484375-2.382812 2.222656-5.339844 4.976563-8.386718 4.410156-4.871094 5.632812-10.835938 3.355468-16.367188-2.996094-7.277344-11.363281-12.402344-27.140625-16.621094-9.96875-2.667968-20.429687-4.222656-24.359375-4.4375-12.484375-.679687-18.765625 5.199219-22.9375 9.089844-.988281.921875-1.84375 1.714844-2.585937 2.246094-12.332031 8.78125-19.667969 14.761718-15.339844 26.5.136719.363281.257813.699218.355469 1.046875-.226563.042969-.410156.070312-.5625.085937-.320313-.367187-.734375-.894531-1.070313-1.316406-2.863281-3.628906-8.183593-10.378906-20.191406-9.910156-13.484375.527344-20.847656 11.855468-25.71875 19.347656-.851563 1.308594-1.976563 3.039062-2.925781 4.328125-9.339844-3.265625-17.261719.585937-21.273438 6.371094-5.269531 7.597656-4.414062 18.175781 1.875 24.390625-.882812 1.785156-4.011718 5.925781-12.011718 11.558594-7.570313 5.328124-14.839844 8.746093-16.605469 9.277343-25.207031 5-38.808594 12.183594-45.476563 24.003907-9.382812 16.628906-1.613281 38.011718 8.21875 65.078124 2.394532 6.585938 6.070313 12.738282 9.621094 18.683594 3.09375 5.179688 6.015625 10.070313 7.117188 13.757813.953124 3.195312.46875 6.164062-.140626 9.925781-.570312 3.511719-1.21875 7.492188-.566406 11.878906 1.355469 9.140625 7.488282 20.191406 28.976563 20.921875 16.835937.566407 24.292969-8.582031 28.320312-13.5.246094-.300781.527344-.644531.800781-.972656 12.390626 4.914063 20.515626 5.71875 26.96875 2.710937 7.09375-3.304687 9.226563-10.011718 10.5-14.019531.375-1.171875.929688-2.914062 1.324219-3.484375.15625-.0625.566407-.191406 1.367188-.257812 17.253906-1.503906 25.707031-7.433594 31.296875-11.355469 4.066406-2.855469 4.53125-2.992187 6.285156-2.726563 4.582031.679688 12.855469 4.980469 25.300781 13.152344 6.425781 4.222656 7.671875 7.664063 9.25 12.027344 3.148438 8.707031 7.464844 16.746094 25.414063 19.441406 4.859375.726563 6.742187 1.269532 7.441406 1.539063.234375.371093.566406.957031.851562 1.453125 2.175782 3.816406 5.816407 10.207031 16.582032 19.890625 13.855468 12.457031 23.535156 10.097656 31.1875 6.144531.03125-.015625.0625-.03125.097656-.050781 6.609375 4.738281 12.472656 6.375 17.496094 6.375 8.183594 0 14.128906-4.347657 17.402344-6.742188.566406-.414062 1.277343-.9375 1.804687-1.285156.277344.007813.546875.007813.820313.007813 22.464843 0 23.253906-15.867188 23.597656-22.761719.273437-5.460938.648437-5.667969 1.46875-6.128907 9.617187-5.371093 14.785156-14.769531 19.785156-23.859374.945312-1.71875 1.90625-3.464844 2.914062-5.21875zm-17.332031-9.980469c-1.074219 1.867187-2.101562 3.730469-3.105469 5.558593-3.972656 7.226563-7.402343 13.464844-12.015624 16.039063-10.867188 6.070313-11.402344 16.820313-11.6875 22.597656-.054688 1.066407-.125 2.535157-.265626 3.496094-.769531.160156-2.222656.335937-4.683593.230469-5.699219-.25-9.988281 2.878906-13.105469 5.160156-4.609375 3.371094-6 4.390625-12.070312-.203125-3.789063-2.871094-7.378907-3.8125-10.519532-3.8125-4.34375 0-7.828125 1.800781-9.785156 2.8125-.726562.375-1.816406.9375-2.148438.976563-.015624 0-1.890624-.101563-6.480468-4.230469-8.359375-7.519531-10.800782-11.792969-12.578125-14.917969-4.792969-8.414062-9.035157-10.820312-22.703125-12.871094-7.648438-1.148437-7.90625-1.855468-9.570313-6.460937-2.027343-5.605469-5.089843-14.070313-17.082031-21.945313-15.75-10.34375-25.410156-15.042968-33.339844-16.21875-9.871094-1.464844-15.878906 2.75-20.710937 6.136719-4.738281 3.328125-9.644531 6.769531-21.542969 7.804687-14.828125 1.289063-18.332031 12.308594-20.015625 17.605469-.171875.535157-.390625 1.21875-.59375 1.804688-1.585937-.136719-5.074219-.800781-11.769531-3.5625-12.128906-5.003907-19.011719 3.386719-22.316406 7.421875-3.285157 4.007812-5.25 6.429687-12.171876 6.191406-9.347656-.320312-9.664062-2.460938-9.875-3.875-.195312-1.3125.152344-3.457031.523438-5.734375.773438-4.75 1.828125-11.257813-.433594-18.847656-1.816406-6.082031-5.359375-12.015625-9.113281-18.296875-3.074219-5.144532-6.25-10.460938-7.992187-15.257813-8.996094-24.765625-14.132813-40.382812-9.597657-48.425781 3.371094-5.976562 13.867188-10.636719 32.089844-14.234375 7.472656-1.480469 39.105469-17.867187 44.097656-35.695313 1.480469-5.28125.726563-10.488281-2.042969-14.882812 4.835938 1.039062 9.742188-.378906 13.925782-4.132812 3.011718-2.699219 5.285156-6.199219 7.695312-9.90625 2.9375-4.519532 6.59375-10.140626 9.734375-10.265626 1.828125-.074218 1.824219-.070312 3.710938 2.320313 5.734375 7.265625 13.429687 12.9375 30.734375 5.300781 2.804687-1.238281 4.882812-3.691406 5.648437-6.660156 1.890625-7.351562 1.097657-12.265625.144531-15.453125 1.308594-1.117187 3.546876-2.871094 7.386719-5.609375 1.816407-1.289062 3.304688-2.679688 4.617188-3.902344 3.097656-2.886718 4.25-3.96875 8.222656-3.75 6.925781.375 23.925781 4.074219 31.445313 7.601563-6.480469 8.609375-8.773438 17.738281-6.457032 26.070312 2.207032 7.949219 10.707032 10.5625 18.929688 13.089844 2.785156.859375 5.90625 1.816406 7.707031 2.6875 2.585937 2.058594 13.070313 10.90625 14.46875 12.128906 3.445313 3.132813 9.511719 4.964844 16.359375.824219 8.941406-5.40625 16.359375-19.390625 12.742188-32.5625-.242188-.894531.363281-2.921875 1.070312-5.277344 1.40625-4.699218 3.335938-11.136718 2.25-19.964844-.828125-6.757812.320312-10.636718 1.222656-12.355468 1.371094 1.816406 3.496094 6.453125 3.496094 15.726562 0 11.316406 1.84375 23.105469 15.121094 25.628906.207031 2.039063.296875 5.957032-.414063 13.125-1.109375 11.164063 7.683594 21.894532 19.851563 36.746094 6.046875 7.375 12.898437 15.738282 18.9375 24.792969 11.519531 17.261719 24.574218 54.484375 18.816406 73.515625-1.207031 3.988281-5.09375 10.203125-8.851562 16.207031-1.96875 3.152344-4.007813 6.40625-5.910157 9.710938zm0 0"/><path d="m340.816406 417.273438c1.664063 6.960937 3.550782 14.855468 14.03125 22.410156 2.988282 2.152344 6.558594 3.253906 10.402344 3.253906 1.925781 0 3.921875-.277344 5.945312-.835938 7.515626-2.078124 14.210938-7.6875 17.058594-14.289062.648438-1.511719 1.292969-2.867188 1.914063-4.175781 2.945312-6.210938 5.726562-12.078125 3.84375-23.011719-.753907-4.375-2.734375-7.683594-5.886719-9.839844-4.917969-3.363281-10.191406-2.292968-14.042969-1.515625-2.160156.4375-4.195312.851563-6.234375.703125-1.386718-.097656-2.828125-.253906-4.359375-.414062-7.882812-.84375-16.820312-1.792969-22.382812 5.050781-3.449219 4.242187-4.097657 9.824219-1.917969 16.582031.683594 2.128906 1.164062 4.136719 1.628906 6.082032zm20.554688-7.828126c1.625.171876 3.304687.351563 5.027344.476563 2.984374.214844 5.664062-.019531 7.964843-.367187-.367187 1.507812-1.113281 3.078124-2.269531 5.515624-.664062 1.398438-1.414062 2.984376-2.207031 4.824219-.476563 1.105469-2.710938 2.660157-4.132813 2.980469-3.71875-2.859375-4.171875-4.757812-5.484375-10.25-.253906-1.058594-.523437-2.179688-.835937-3.378906.683594.066406 1.347656.136718 1.9375.199218zm0 0"/><path d="m82.054688 92.050781c2.558593 0 5.121093-.976562 7.074218-2.929687 3.90625-3.90625 3.90625-10.238282 0-14.144532-3.90625-3.902343-10.234375-3.902343-14.144531 0l-.003906.007813c-3.90625 3.902344-3.902344 10.234375.003906 14.136719 1.953125 1.953125 4.511719 2.929687 7.070313 2.929687zm0 0"/><path d="m422.882812 422.875-.003906.003906c-3.90625 3.90625-3.902344 10.234375.003906 14.140625 1.949219 1.953125 4.507813 2.925781 7.066407 2.925781 2.5625 0 5.121093-.976562 7.074219-2.929687 3.90625-3.902344 3.90625-10.234375 0-14.140625-3.902344-3.90625-10.234376-3.90625-14.140626 0zm0 0"/></svg>