<?xml version="1.0" encoding="utf-8"?>
<!-- Generator: Adobe Illustrator 22.1.0, SVG Export Plug-In . SVG Version: 6.00 Build 0)  -->
<svg version="1.1" id="Layer_1" xmlns="http://www.w3.org/2000/svg" xmlns:xlink="http://www.w3.org/1999/xlink" x="0px" y="0px"
	 viewBox="0 0 496 496" style="enable-background:new 0 0 496 496;" xml:space="preserve">
<style type="text/css">
	.st0{fill:#BEF2EF;}
	.st1{fill:#283E4E;}
</style>
<circle class="st0" cx="392" cy="168" r="42.9"/>
<rect x="23" y="343" class="st0" width="132" height="137"/>
<g>
	<g>
		<g>
			<rect x="72" y="232" class="st1" width="16" height="16"/>
			<rect x="56" y="208" class="st1" width="16" height="16"/>
			<rect x="128" y="248" class="st1" width="16" height="16"/>
			<rect x="160" y="232" class="st1" width="16" height="16"/>
			<path class="st1" d="M392,464c26.5,0,48-21.5,48-48s-21.5-48-48-48s-48,21.5-48,48S365.5,464,392,464z M361.3,407.5l12.9,7.4
				l8-13.9l-12.9-7.5c4-4.1,9.1-7,14.8-8.5V400h16v-14.9c5.7,1.5,10.8,4.4,14.8,8.5l-12.9,7.5l8,13.9l12.9-7.4
				c0.7,2.7,1.3,5.5,1.3,8.5s-0.5,5.8-1.3,8.5l-12.9-7.4l-8,13.9l12.9,7.5c-4,4.1-9.1,7-14.8,8.5V432h-16v14.9
				c-5.7-1.5-10.8-4.4-14.8-8.5l12.9-7.5l-8-13.9l-12.9,7.4c-0.7-2.7-1.3-5.5-1.3-8.5C360,413,360.5,410.2,361.3,407.5z"/>
			<path class="st1" d="M480,480V336h-16v-48h-24v-91.3c5-8.4,8-18.2,8-28.7c0-19.9-10.4-37.3-26.1-47.2l-72.3-80.8
				C342.7,16.9,321.3,0,296,0c-19.6,0-36.9,10.2-46.9,25.6l-93.2,88.5c-8.3,7.9-13,18.6-13.1,30c-0.1,8.4,2.3,16.3,6.6,23.2
				l-43.1,43.1l11.3,11.3l42.8-42.8c7.3,5.3,15.8,8,24.5,8c10.2,0,20.5-3.7,28.6-11.2l70.4-65c2.4,0.5,4.9,0.9,7.4,1.1l45,50.6
				c-0.2,1.9-0.3,3.7-0.3,5.6c0,10.5,3,20.3,8,28.7V288h-24v48h-16v144H160V336h-16v-16h16v-16h-16.8c-3.7-18.2-19.9-32-39.2-32H32
				v32H16v16h16v16H16v144H0v16h16h144h144h176h16v-16H480z M48,288h56c10.4,0,19.2,6.7,22.5,16H48V288z M48,320h80v16H48V320z
				 M144,400h-16v16h16v64H32v-64h80v-16H32v-48h112V400z M432,168c0,22.1-17.9,40-40,40s-40-17.9-40-40s17.9-40,40-40
				S432,145.9,432,168z M424,213.9V288h-64v-74.1c9.1,6.4,20.1,10.1,32,10.1S414.9,220.2,424,213.9z M202.7,163.8
				c-10.4,9.6-26.3,9.3-36.3-0.7c-5-5-7.8-11.7-7.7-18.8s3-13.7,8.1-18.6L240,56.2c0.1,20.4,11.1,38.1,27.4,47.9L202.7,163.8z
				 M295.9,96c-22,0-39.9-18-39.9-40c0-22.1,17.9-40,40-40s40,17.9,40,40C336,78,318.1,96,295.9,96L295.9,96z M341.4,144.1
				L311,109.9c20.6-5.8,36.4-23,40.1-44.3l41.5,46.4c-0.2,0-0.4,0-0.7,0C369.7,112,350.4,125.2,341.4,144.1z M336,304h8h96h8v32H336
				V304z M464,480H320V352h144V480z"/>
		</g>
	</g>
</g>
</svg>
