<svg xmlns="http://www.w3.org/2000/svg" viewBox="0 0 43.33 52.47"><title>Asset 11</title><g id="Layer_2" data-name="Layer 2"><g id="Layer_4" data-name="Layer 4"><path d="M25.85,26.9a1.28,1.28,0,0,1,.93.41l2.55,2.76a13.93,13.93,0,0,1-5.2,4,17.84,17.84,0,0,1-7.4,1.39,17.51,17.51,0,0,1-7-1.32,15.29,15.29,0,0,1-5.27-3.67,16.23,16.23,0,0,1-3.35-5.62A21.18,21.18,0,0,1,0,17.74a19.92,19.92,0,0,1,1.25-7.17A16.43,16.43,0,0,1,4.76,5a15.93,15.93,0,0,1,5.42-3.66,17.94,17.94,0,0,1,7-1.31,17.15,17.15,0,0,1,6.73,1.25,16,16,0,0,1,5,3.26l-2.16,3a2.15,2.15,0,0,1-.49.51,1.44,1.44,0,0,1-.83.21,1.61,1.61,0,0,1-.74-.2q-.39-.21-.84-.51l-1.06-.66a8.59,8.59,0,0,0-1.39-.66,11.8,11.8,0,0,0-1.84-.5,12.34,12.34,0,0,0-2.41-.2,10.75,10.75,0,0,0-4.26.82,9.44,9.44,0,0,0-3.32,2.4,11,11,0,0,0-2.16,3.84,16.21,16.21,0,0,0-.77,5.18,15.21,15.21,0,0,0,.83,5.2,11.48,11.48,0,0,0,2.24,3.84A9.63,9.63,0,0,0,13,29.17a10.33,10.33,0,0,0,4.13.83,19,19,0,0,0,2.38-.14,10.16,10.16,0,0,0,2-.46,9.52,9.52,0,0,0,1.71-.8,11.26,11.26,0,0,0,1.59-1.22A2.06,2.06,0,0,1,25.3,27,1.18,1.18,0,0,1,25.85,26.9Z" style="fill:#fff"/><path d="M17.48,25.57a1.32,1.32,0,0,1-.94-.41L14,22.4a14,14,0,0,1,5.2-4A17.84,17.84,0,0,1,26.6,17a17.51,17.51,0,0,1,6.95,1.32A15.39,15.39,0,0,1,38.82,22a16.06,16.06,0,0,1,3.34,5.62,21,21,0,0,1,1.17,7.13,19.9,19.9,0,0,1-1.25,7.16,16.21,16.21,0,0,1-3.52,5.6,15.79,15.79,0,0,1-5.41,3.66,17.76,17.76,0,0,1-7,1.31,16.94,16.94,0,0,1-6.73-1.25,16,16,0,0,1-5-3.26l2.16-3a1.79,1.79,0,0,1,.49-.5,1.34,1.34,0,0,1,.83-.22,1.65,1.65,0,0,1,.74.2q.39.21.84.51c.3.2.66.42,1.06.66a8.59,8.59,0,0,0,1.39.66,10.93,10.93,0,0,0,1.83.5,12.39,12.39,0,0,0,2.42.21,10.75,10.75,0,0,0,4.26-.83,9.28,9.28,0,0,0,3.32-2.4A11,11,0,0,0,36,39.91a16.15,16.15,0,0,0,.77-5.17,15.23,15.23,0,0,0-.83-5.21,11.48,11.48,0,0,0-2.24-3.84,9.63,9.63,0,0,0-3.34-2.39,10.36,10.36,0,0,0-4.13-.83,17.39,17.39,0,0,0-2.39.15,9.54,9.54,0,0,0-2,.45,8.92,8.92,0,0,0-1.71.81,10,10,0,0,0-1.59,1.21,2.44,2.44,0,0,1-.51.35A1.31,1.31,0,0,1,17.48,25.57Z" style="fill:#fff"/></g></g></svg>