<?xml version="1.0" encoding="utf-8"?>
<!-- Generator: Adobe Illustrator 22.1.0, SVG Export Plug-In . SVG Version: 6.00 Build 0)  -->
<svg version="1.1" id="Layer_1" xmlns="http://www.w3.org/2000/svg" xmlns:xlink="http://www.w3.org/1999/xlink" x="0px" y="0px"
	 viewBox="0 0 512 512" style="enable-background:new 0 0 512 512;" xml:space="preserve">
<style type="text/css">
	.st0{fill:#BEF2EF;}
	.st1{fill:#FFFFFF;}
	.st2{fill:#283E4E;}
</style>
<path class="st0" d="M152.3,447.9h230.1v50H152.3V447.9z"/>
<path class="st0" d="M269.7,250.8l-51.3-29.6l94.9-164.3l51.3,29.6L269.7,250.8z"/>
<path class="st0" d="M368.9,156.4l-25.4,44c7.6,15.8,11.8,33.6,11.8,52.3C355.2,318.2,302,372,236.5,372.9
	c-21.7,0.3-42.1-5.2-59.8-14.9L144,414.7c24.7,13.9,53.2,21.9,83.5,22.2c96.4,1,176-77,176.9-173.3
	C404.7,223.3,391.5,186.1,368.9,156.4z"/>
<path class="st0" d="M225.8,285.1l-48.1-27.8l24.1-41.7l48.1,27.8L225.8,285.1z"/>
<path class="st0" d="M352.5,79.6l-60.2-34.7l20-34.7l60.2,34.7L352.5,79.6z"/>
<path class="st1" d="M242,372.7c-20.6,0-37.3,16.7-37.3,37.3v37.8h74.7V410C279.3,389.4,262.6,372.7,242,372.7z"/>
<path class="st2" d="M300.1,80.8c-4.8-2.8-10.9-1.1-13.7,3.7l-41.7,72.2c-2.8,4.8-1.1,10.9,3.7,13.7c1.6,0.9,3.3,1.3,5,1.3
	c3.5,0,6.8-1.8,8.7-5l41.7-72.2C306.5,89.7,304.9,83.5,300.1,80.8z"/>
<path class="st2" d="M234.5,184.5c-2.6,0-5.2,1.1-7.1,2.9c-1.9,1.9-2.9,4.4-2.9,7.1c0,2.6,1.1,5.2,2.9,7.1c1.9,1.9,4.4,2.9,7.1,2.9
	c2.6,0,5.2-1.1,7.1-2.9c1.9-1.9,2.9-4.4,2.9-7.1c0-2.6-1.1-5.2-2.9-7.1C239.7,185.6,237.1,184.5,234.5,184.5z"/>
<path class="st2" d="M400.2,301.3c-5.3-1.6-10.9,1.5-12.4,6.8c-14.5,49.3-50.9,88.8-98.4,107.5V410c0-13.1-5.4-25-14-33.6
	c52-17.2,89.9-66.4,90.1-123.8c0.1-33.1-12-64.2-34.2-88.4l2.9-5.1l9.4-16.4c22.7,21.8,39,50.1,46.3,80.6c1.3,5.4,6.7,8.7,12.1,7.4
	s8.7-6.7,7.4-12.1c-8.6-35.8-28.1-68.8-55.5-93.7l19.4-33.5c1.3-2.3,1.7-5,1-7.6c-0.7-2.6-2.4-4.7-4.7-6.1l-3.4-1.9l15-26
	c1.3-2.3,1.7-5,1-7.6c-0.7-2.6-2.4-4.7-4.7-6.1L317.3,1.5c-2.3-1.3-5-1.7-7.6-1c-2.6,0.7-4.7,2.4-6.1,4.7l-15,26l-3.4-1.9
	c-4.8-2.8-10.9-1.1-13.7,3.7L175,200.2c-2.8,4.8-1.1,10.9,3.7,13.7l9.4,5.4l-19.1,33c-1.3,2.3-1.7,5-1,7.6s2.4,4.7,4.7,6.1
	l48.1,27.8c1.6,0.9,3.3,1.3,5,1.3c3.5,0,6.8-1.8,8.7-5l19.1-33l9.4,5.4c1.5,0.9,3.3,1.3,5,1.3c0.9,0,1.7-0.1,2.6-0.3
	c2.6-0.7,4.7-2.4,6.1-4.7l44-76.2c16.1,19.7,24.8,44.1,24.8,70c-0.1,58.3-46.3,106.7-103.9,110.1c-1,0-2,0.1-3,0.1
	c-0.7,0-1.3,0-2,0.1c-16.5,0.2-32.8-3.2-47.7-10l8.1-15.1l14.4,8.4c1.6,0.9,3.3,1.4,5,1.4c3.4,0,6.8-1.8,8.7-5
	c2.8-4.8,1.2-10.9-3.6-13.7l-87.5-51c-4.8-2.8-10.9-1.2-13.7,3.6c-2.8,4.8-1.2,10.9,3.6,13.7l12,7l-32.4,63.5
	c-7.3,14.2-2.9,31.8,10.2,41l8.6,6c15.5,11.1,32.2,19.5,50,25.3h-64.4c-5.5,0-10,4.5-10,10v54c0,5.5,4.5,10,10,10h274.8
	c5.5,0,10-4.5,10-10v-54c0-5.5-4.5-10-10-10h-93.1v-1c27.1-9.4,52-25.1,72.2-45.8c21.2-21.7,36.9-48.4,45.4-77.3
	C408.5,308.4,405.5,302.8,400.2,301.3z M222.1,271.5l-30.8-17.8l14.1-24.4l30.8,17.8L222.1,271.5z M306,41.2l10-17.4l42.9,24.7
	l-10,17.4l-21.4-12.4L306,41.2z M264.3,240.2l-66.9-38.6l86.6-150l33.5,19.3l30.1,17.4c0,0,0,0,0,0l3.4,1.9l-29.5,51.1l-11.3,19.6v0
	L264.3,240.2z M269.3,410v27.8h-54.7V410c0-14.2,10.8-25.8,24.7-27.2c0.9,0,1.9-0.1,2.8-0.1C257.1,382.8,269.3,395,269.3,410z
	 M133.5,396.2l-8.6-6c-4.9-3.4-6.6-10.1-3.9-15.4l31.9-62.5l26.6,15.5l-13.3,24.7c-2.6,4.8-0.9,10.7,3.8,13.4
	c11.2,6.4,23.2,11,35.6,13.9c-6.9,8.2-11.1,18.8-11.1,30.4v13.2C172.6,418.5,152.1,409.5,133.5,396.2
	C133.6,396.2,133.5,396.2,133.5,396.2z M372.4,491.9H117.7v-34h254.8V491.9z"/>
<path class="st2" d="M404.4,253.5C404.4,253.5,404.4,253.5,404.4,253.5c-5.6,0-10,4.4-10.1,9.9l0,1.2c-0.1,5.5,4.3,10.1,9.8,10.2
	h0.2c5.4,0,9.9-4.4,10-9.8c0-0.5,0-0.9,0-1.4C414.4,258.1,409.9,253.6,404.4,253.5z"/>
<path class="st2" d="M234.9,403.2c-1.9,1.9-2.9,4.4-2.9,7.1s1.1,5.2,2.9,7.1c1.9,1.9,4.4,2.9,7.1,2.9c2.6,0,5.2-1.1,7.1-2.9
	c1.9-1.9,2.9-4.4,2.9-7.1s-1.1-5.2-2.9-7.1c-1.9-1.9-4.4-2.9-7.1-2.9C239.4,400.3,236.8,401.4,234.9,403.2z"/>
<path class="st2" d="M465.4,363.6c-5.5,0-10,4.5-10,10v12.6c0,5.5,4.5,10,10,10s10-4.5,10-10v-12.6
	C475.4,368.1,470.9,363.6,465.4,363.6z"/>
<path class="st2" d="M465.4,424.3c-5.5,0-10,4.5-10,10v12.7c0,5.5,4.5,10,10,10s10-4.5,10-10v-12.7
	C475.4,428.8,470.9,424.3,465.4,424.3z"/>
<path class="st2" d="M502,400.3h-12.6c-5.5,0-10,4.5-10,10c0,5.5,4.5,10,10,10H502c5.5,0,10-4.5,10-10
	C512,404.8,507.5,400.3,502,400.3z"/>
<path class="st2" d="M441.4,400.3h-12.6c-5.5,0-10,4.5-10,10c0,5.5,4.5,10,10,10h12.6c5.5,0,10-4.5,10-10
	C451.4,404.8,446.9,400.3,441.4,400.3z"/>
<path class="st2" d="M100,172.7c0-18.7-7.3-36.2-20.5-49.4l-15.4-15.4l15.4-15.4C92.7,79.3,100,61.7,100,43.1V10c0-5.5-4.5-10-10-10
	S80,4.5,80,10v33.1c0,13.3-5.2,25.9-14.6,35.3L50,93.7L34.6,78.4c-1.9-1.9-3.7-4-5.3-6.2H50c5.5,0,10-4.5,10-10s-4.5-10-10-10H20.8
	c-0.5-3-0.8-6-0.8-9.1v-11h30c5.5,0,10-4.5,10-10s-4.5-10-10-10H20V10c0-5.5-4.5-10-10-10S0,4.5,0,10v33.1
	c0,18.7,7.3,36.2,20.5,49.4l15.4,15.4l-15.4,15.4C7.3,136.5,0,154,0,172.7v33.1c0,5.5,4.5,10,10,10s10-4.5,10-10v-33.1
	c0-13.3,5.2-25.9,14.6-35.3L50,122l15.4,15.4c1.9,1.9,3.7,4,5.3,6.2H50c-5.5,0-10,4.5-10,10s4.5,10,10,10h29.2c0.5,3,0.8,6,0.8,9.1
	v11H50c-5.5,0-10,4.5-10,10s4.5,10,10,10h30v2.1c0,5.5,4.5,10,10,10s10-4.5,10-10V172.7z"/>
</svg>
