<svg xmlns="http://www.w3.org/2000/svg" viewBox="0 0 204.1 216.75"><title>rocketto</title><g id="Layer_2" data-name="Layer 2"><g id="Layer_5" data-name="Layer 5"><path d="M172.23,76.72C186.7,62.45,193.44,44.29,198,25.1c1.74-7.37,2.93-14.88,4.62-23.6-30,7.57-51.93,23-65.35,50-17.65-2.3-33,9.87-37.74,30.26l24.42,1.57" style="fill:none;stroke:#fff;stroke-linecap:round;stroke-linejoin:round;stroke-width:3px"/><path d="M138.48,51.58c16.38,4.25,27.83,14,34.51,29.73,3,7.13,2.79,13.89-1.57,19.78-4.71,6.35-10.57,11.85-16.64,18.5-1.92-4.86-2.78-8.22-4.5-11-1.42-2.33-4.06-5.83-5.8-5.63a14,14,0,0,0-8.48,5c-3.5,4.41-6,9.6-9.77,15.89-4-9.56-9.55-6.49-14.87-4.77" style="fill:none;stroke:#fff;stroke-linecap:round;stroke-linejoin:round;stroke-width:3px"/><path d="M126.57,85.32c6.68.63,10.84,5,14.74,10.16-1.78,1.57-2.16,4-6.29,2.08-5-2.33-9-4.56-9.72-10.26a31.92,31.92,0,0,1,3.87-19.88c2.7-4.92,4.9-10.11,7.33-15.18" style="fill:none;stroke:#fff;stroke-linecap:round;stroke-linejoin:round;stroke-width:3px"/><path d="M171.56,78,151.72,91.93" style="fill:none;stroke:#fff;stroke-linecap:round;stroke-linejoin:round;stroke-width:3px"/><path d="M115.33,93.26c-7.43,2.4-9.5,9.22-13.49,15.21a14.71,14.71,0,0,1,1.58,0c7.7,1.24,9.84,6.55,5.28,13.22-1.25,1.82-2.64,3.54-4,5.3" style="fill:none;stroke:#fff;stroke-linecap:round;stroke-linejoin:round;stroke-width:3px"/><circle cx="68.88" cy="137.13" r="3" style="fill:#fff"/><circle cx="26.78" cy="157.38" r="2.5" style="fill:#fff"/><circle cx="81.66" cy="156.28" r="1" style="fill:#fff"/><circle cx="62.6" cy="120.59" r="1" style="fill:#fff"/><circle cx="51.32" cy="97.73" r="1" style="fill:#fff"/><circle cx="61.4" cy="166.45" r="2" style="fill:#fff"/><circle cx="31.6" cy="213.75" r="3" style="fill:#fff"/><circle cx="36.69" cy="171.6" r="1" style="fill:#fff"/><circle cx="1" cy="190.66" r="1" style="fill:#fff"/><circle cx="60.6" cy="195.23" r="2" style="fill:#fff"/><rect x="10.96" y="1.5" width="176" height="176" rx="23" ry="23" style="fill:#fff;opacity:0.15"/></g></g></svg>