<svg xmlns="http://www.w3.org/2000/svg" viewBox="0 0 105.09 127.5"><title>rocket_icon</title><g id="Layer_2" data-name="Layer 2"><g id="Layer_5" data-name="Layer 5"><path d="M73.72,76.22C88.19,62,94.93,43.79,99.47,24.6c1.75-7.37,2.93-14.88,4.62-23.6-30,7.57-51.93,23-65.35,50C21.09,48.7,5.74,60.87,1,81.26l24.42,1.57" style="fill:none;stroke:#fff;stroke-linecap:round;stroke-linejoin:round;stroke-width:3px"/><path d="M40,51.08c16.37,4.25,27.82,14,34.5,29.73,3,7.13,2.79,13.89-1.57,19.78-4.71,6.35-10.57,11.85-16.64,18.5-1.92-4.86-2.78-8.22-4.5-11-1.42-2.33-4.06-5.83-5.79-5.63a14.06,14.06,0,0,0-8.49,5c-3.49,4.41-6,9.6-9.76,15.89-4-9.56-9.56-6.49-14.88-4.77" style="fill:none;stroke:#fff;stroke-linecap:round;stroke-linejoin:round;stroke-width:3px"/><path d="M28.07,84.82c6.68.63,10.83,5,14.73,10.16-1.78,1.57-2.16,4-6.28,2.08-5-2.33-9-4.56-9.73-10.26a31.92,31.92,0,0,1,3.87-19.88C33.36,62,35.57,56.81,38,51.74" style="fill:none;stroke:#fff;stroke-linecap:round;stroke-linejoin:round;stroke-width:5px"/><path d="M73.06,77.54,53.21,91.43" style="fill:none;stroke:#fff;stroke-linecap:round;stroke-linejoin:round;stroke-width:5px"/><path d="M16.82,92.76C9.39,95.16,7.33,102,3.33,108a14.62,14.62,0,0,1,1.58,0c7.71,1.24,9.84,6.55,5.28,13.22-1.24,1.82-2.63,3.54-4,5.3" style="fill:none;stroke:#fff;stroke-linecap:round;stroke-linejoin:round;stroke-width:5px"/></g></g></svg>