<svg xmlns="http://www.w3.org/2000/svg" viewBox="0 0 319.47 351.54"><title>rocket_service</title><g id="Layer_2" data-name="Layer 2"><g id="Layer_1-2" data-name="Layer 1"><rect x="16.5" y="42.54" width="300" height="309" rx="56.59" ry="56.59" style="fill:#c4252d;opacity:0.07"/><path d="M260.41,351H73.59A56.76,56.76,0,0,1,17,294.44V284.37S81,266,167,265c88.45-1,150,23.23,150,23.23v6.17A56.76,56.76,0,0,1,260.41,351Z" style="fill:#dae2f3"/><circle cx="272.98" cy="103.32" r="31.13" style="fill:none;stroke:#005d8a;stroke-miterlimit:10;stroke-width:2.2px"/><path d="M278.2,80.42s14.7,5.11,14.48,21.51" style="fill:none;stroke:#005d8a;stroke-miterlimit:10;stroke-width:2.2px"/><polyline points="256.77 210.74 257.87 226.31 207.52 208.81 218.05 197.27" style="fill:none;stroke:#005d8a;stroke-miterlimit:10;stroke-width:2.2px"/><line x1="209.6" y1="222.42" x2="199.37" y2="251.82" style="fill:none;stroke:#005d8a;stroke-miterlimit:10;stroke-width:2.2px"/><line x1="215.99" y1="235.63" x2="204.06" y2="269.93" style="fill:none;stroke:#005d8a;stroke-miterlimit:10;stroke-width:2.2px"/><line x1="229.49" y1="227.14" x2="226.08" y2="236.94" style="fill:none;stroke:#005d8a;stroke-miterlimit:10;stroke-width:2.2px"/><line x1="222.38" y1="248.84" x2="212.16" y2="278.24" style="fill:none;stroke:#005d8a;stroke-miterlimit:10;stroke-width:2.2px"/><line x1="234.1" y1="230.94" x2="223.87" y2="260.34" style="fill:none;stroke:#005d8a;stroke-miterlimit:10;stroke-width:2.2px"/><line x1="242.19" y1="239.25" x2="237.08" y2="253.95" style="fill:none;stroke:#005d8a;stroke-miterlimit:10;stroke-width:2.2px"/><line x1="235.38" y1="258.85" x2="228.56" y2="278.45" style="fill:none;stroke:#005d8a;stroke-miterlimit:10;stroke-width:2.2px"/><path d="M145.61,242.54s-4.5,0-5.92,1.39C132,251.48,134.32,257,134.32,257s-8.24-4.14-14.07,2.64S122,274.11,122,274.11s-.69,3.54,2.16,7.76a31,31,0,0,0,4.55,5.69" style="fill:none;stroke:#005d8a;stroke-miterlimit:10;stroke-width:2.2px"/><path d="M190.3,256.91A10.82,10.82,0,0,0,185,252c-3.8-1.61-3.64-2.6-3.64-2.6s-3.84-7.7-12.37-5-7.65,9.92-7.65,9.92-3.85,2.49-4.9,5.3a9.13,9.13,0,0,0,.72,8.21" style="fill:none;stroke:#005d8a;stroke-miterlimit:10;stroke-width:2.2px"/><path d="M249,259.74c4.11.37,11.46-5.54,17.7.86s4.24,17.41,5.75,20c2.59,4.44,13,6.9,17.25,11.29,6.24,6.41-.82,14.54-.82,14.54s.9,3.49-1.68,7.88a31.31,31.31,0,0,1-4.19,6" style="fill:none;stroke:#005d8a;stroke-miterlimit:10;stroke-width:2.2px"/><path d="M213.76,193.51,239.25,80.62s1.4-10.1,5.91-17,61.1-53.93,61.1-53.93l2.59-4.39-.7,5.05L318.26,84.8s1.15,8.87-4.06,20.82S261,209.93,261,209.93Z" style="fill:none;stroke:#005d8a;stroke-miterlimit:10;stroke-width:2.2px"/><polyline points="218.44 149.61 192.65 162.88 162.23 216.88 213.31 179.59" style="fill:none;stroke:#005d8a;stroke-miterlimit:10;stroke-width:2.2px"/><polyline points="283.61 172.27 295.61 198.68 285.96 259.9 269.04 198.97" style="fill:none;stroke:#005d8a;stroke-miterlimit:10;stroke-width:2.2px"/><line x1="210.23" y1="283.79" x2="207.25" y2="292.35" style="fill:none;stroke:#005d8a;stroke-miterlimit:10;stroke-width:2.2px"/><line x1="206.29" y1="295.12" x2="205.61" y2="297.08" style="fill:none;stroke:#005d8a;stroke-miterlimit:10;stroke-width:2.2px"/><line x1="204.32" y1="300.79" x2="203.64" y2="302.74" style="fill:none;stroke:#005d8a;stroke-miterlimit:10;stroke-width:2.2px"/><line x1="208.59" y1="288.51" x2="207.91" y2="290.46" style="fill:none;stroke:#005d8a;stroke-miterlimit:10;stroke-width:2.2px"/><line x1="207.6" y1="291.34" x2="206.92" y2="293.3" style="fill:none;stroke:#005d8a;stroke-miterlimit:10;stroke-width:2.2px"/><line x1="228.3" y1="280.54" x2="227.62" y2="282.5" style="fill:none;stroke:#005d8a;stroke-miterlimit:10;stroke-width:2.2px"/><line x1="226.33" y1="286.21" x2="225.65" y2="288.16" style="fill:none;stroke:#005d8a;stroke-miterlimit:10;stroke-width:2.2px"/><circle cx="71" cy="78.04" r="3" style="fill:#005d8a"/><circle cx="109.5" cy="70.54" r="2.5" style="fill:#005d8a"/><circle cx="82" cy="119.04" r="1" style="fill:#005d8a"/><circle cx="108" cy="88.04" r="1" style="fill:#005d8a"/><circle cx="125" cy="69.04" r="1" style="fill:#005d8a"/><circle cx="65" cy="104.04" r="2" style="fill:#005d8a"/><circle cx="10" cy="94.04" r="3" style="fill:#005d8a"/><circle cx="2.5" cy="55.54" r="2.5" style="fill:#005d8a"/><circle cx="51" cy="83.04" r="1" style="fill:#005d8a"/><circle cx="20" cy="57.04" r="1" style="fill:#005d8a"/><circle cx="1" cy="40.04" r="1" style="fill:#005d8a"/><circle cx="36" cy="100.04" r="2" style="fill:#005d8a"/></g></g></svg>