<svg height="512.0005pt" viewBox="0 0 512.0005 512.0005" width="512.0005pt" xmlns="http://www.w3.org/2000/svg" xmlns:xlink="http://www.w3.org/1999/xlink"><linearGradient id="a"><stop offset="0" stop-color="#662d91"/><stop offset=".437" stop-color="#3873b3"/><stop offset="1" stop-color="#00c9dd"/></linearGradient><linearGradient id="b" gradientTransform="matrix(.99449 0 0 -.99449 .000497 502.474382)" gradientUnits="userSpaceOnUse" x1="39.3233" x2="470.8353" xlink:href="#a" y1="461.6445" y2="30.1324"/><linearGradient id="c" gradientTransform="matrix(.99449 0 0 -.99449 .000497 502.474382)" gradientUnits="userSpaceOnUse" x1="41.4684" x2="472.9805" xlink:href="#a" y1="463.7896" y2="32.2776"/><linearGradient id="d" gradientTransform="matrix(.99449 0 0 -.99449 .000366 502.473884)" gradientUnits="userSpaceOnUse" x1="50.0468" x2="481.5588" xlink:href="#a" y1="472.3726" y2="40.8606"/><linearGradient id="e" gradientTransform="matrix(.99449 0 0 -.99449 .001108 502.474183)" gradientUnits="userSpaceOnUse" x1="50.0524" x2="481.5645" xlink:href="#a" y1="472.3703" y2="40.8582"/><linearGradient id="f" gradientTransform="matrix(.99449 0 0 -.99449 .000021 502.473685)" gradientUnits="userSpaceOnUse" x1="50.0441" x2="481.5562" xlink:href="#a" y1="472.3737" y2="40.8617"/><path d="m443.734375 366.933594h-17.066406c-.039063 32.972656-26.761719 59.695312-59.734375 59.734375h-8.535156v17.066406h8.535156c42.394531-.046875 76.753906-34.40625 76.800781-76.800781zm0 0" fill="url(#b)"/><path d="m341.332031 477.867188h25.601563c61.238281-.070313 110.863281-49.695313 110.933594-110.933594v-17.066406h-17.066407v17.066406c-.0625 51.816406-42.050781 93.804687-93.867187 93.867187h-25.601563zm0 0" fill="url(#b)"/><path d="m494.933594 366.933594c-.078125 70.660156-57.339844 127.917968-128 128h-34.132813v17.066406h34.132813c80.082031-.089844 144.976562-64.984375 145.066406-145.066406v-34.132813h-17.066406zm0 0" fill="url(#c)"/><path d="m441.234375 2.5c-3.332031-3.332031-8.734375-3.332031-12.066406 0l-145.066407 145.066406c-3.332031 3.332032-3.332031 8.734375 0 12.066406l28.097657 28.097657-22.066407 22.070312-49.433593-49.433593c-3.332031-3.332032-8.734375-3.332032-12.066407 0l-11.035156 11.03125-9.265625-9.265626 11.03125-11.035156c3.332031-3.332031 3.332031-8.734375 0-12.066406l-51.199219-51.199219c-21.945312-22.183593-57.714843-22.378906-79.902343-.433593-2.425781 2.402343-4.628907 5.015624-6.582031 7.816406l-32.980469-32.980469-12.066407 12.0625 37.078126 37.078125c-6.144532 20.085938-.714844 41.925781 14.121093 56.789062l51.199219 51.203126c3.335938 3.332031 8.734375 3.332031 12.066406 0l11.035156-11.035157 9.269532 9.269531-11.035156 11.03125c-3.332032 3.332032-3.332032 8.734376 0 12.066407l49.433593 49.433593-22.066406 22.070313-28.101563-28.101563c-3.332031-3.332031-8.734374-3.332031-12.066406 0l-145.066406 145.066407c-3.332031 3.332031-3.332031 8.734375 0 12.066406l68.265625 68.265625c3.332031 3.332031 8.734375 3.332031 12.066406 0l145.066407-145.066406c3.332031-3.332032 3.332031-8.734375 0-12.066406l-28.101563-28.101563 22.070313-22.066406 23.832031 23.832031c3.332031 3.332031 8.734375 3.332031 12.066406 0l28.101563-28.097656 13.535156 13.53125-15.300782 15.300781c-1.601562 1.601563-2.5 3.769531-2.5 6.035156v76.800781c-.003906 3.449219 2.074219 6.5625 5.261719 7.882813 1.035157.433594 2.148438.652344 3.269531.648437 2.261719 0 4.433594-.898437 6.035157-2.5l53.699219-53.699218 2.558593 2.558594c-1.671875 3.417968-2.546875 7.171874-2.558593 10.976562 0 14.136719 11.460937 25.597656 25.601562 25.597656 14.136719 0 25.597656-11.460937 25.597656-25.597656 0-14.140625-11.460937-25.601562-25.597656-25.601562-3.804688.015624-7.550781.890624-10.96875 2.558593l-2.558594-2.558593 53.699219-53.699219c3.332031-3.332031 3.332031-8.734375 0-12.070313-1.601563-1.597656-3.773437-2.5-6.039063-2.496094h-76.800781c-2.265625 0-4.433593.898438-6.035156 2.5l-15.300781 15.300782-13.53125-13.535156 28.097656-28.101563c3.332031-3.332031 3.332031-8.730469 0-12.066406l-23.832031-23.832031 22.066406-22.066407 28.101563 28.097657c3.332031 3.332031 8.734374 3.332031 12.066406 0l145.066406-145.066407c3.332031-3.332031 3.332031-8.734375 0-12.066406zm-287.636719 299.699219 22.070313 22.066406-22.070313 22.070313-22.066406-22.070313zm-38.398437 106.667969 22.066406 22.066406-22.066406 22.066406-22.066407-22.066406zm-34.132813 10-22.070312-22.066407 22.070312-22.070312 22.066406 22.070312zm46.199219-22.066407 26.332031-26.335937 22.070313 22.070312-26.335938 26.332032zm-12.066406-12.066406-22.066407-22.070313 26.332032-26.332031 22.070312 22.066407zm-68.265625 24.132813 22.066406 22.066406-26.332031 26.335937-22.070313-22.070312zm29.867187 82.535156-22.070312-22.070313 26.335937-26.332031 22.066406 22.066406zm133-133.003906-22.070312 22.070312-22.066407-22.070312 22.066407-22.066407zm174.199219 17.070312c0 4.710938-3.820312 8.53125-8.535156 8.53125-4.710938 0-8.53125-3.820312-8.53125-8.53125 0-4.714844 3.820312-8.535156 8.53125-8.535156 4.714844 0 8.535156 3.820312 8.535156 8.535156zm-47.667969-76.800781h52.667969l-90.332031 90.332031v-52.667969zm-191.265625-97.402344-45.167968-45.167969c-7.878907-7.921875-12.039063-18.808594-11.441407-29.96875l7.910157 7.902344 12.066406-12.066406-14.378906-14.375c1.621093-2.792969 3.582031-5.375 5.84375-7.683594 15.535156-15.484375 40.667968-15.484375 56.199218 0l45.167969 45.160156zm29.132813-5 22.066406-22.066406 9.269531 9.265625-22.070312 22.070312zm77.535156 111.667969-51.9375-51.933594 19.566406-19.566406-12.0625-12.066406-19.570312 19.566406-9.265625-9.269532 11.035156-11.03125 34.132812-34.136718 11.035157-11.03125 73.265625 73.265625zm183.464844-287.335938 22.070312 22.070313-26.335937 26.332031-22.066406-22.066406zm-42.664063 110.933594 22.066406 22.066406-22.066406 22.070313-22.070312-22.070313zm-34.136718 10.003906-22.066407-22.070312 22.066407-22.066406 22.070312 22.066406zm46.199218-22.070312 26.335938-26.332032 22.066406 22.066407-26.332031 26.335937zm-12.0625-12.066406-22.070312-22.066407 26.335937-26.335937 22.066407 22.070312zm-90.335937 46.199218 22.066406-22.066406 22.070313 22.066406-22.070313 22.070313zm56.199219 56.203125-22.066407-22.070312 22.066407-22.066407 22.070312 22.066407zm106.667968-106.667969-22.066406-22.066406 26.332031-26.335937 22.070313 22.070312zm0 0" fill="url(#c)"/><path d="m249.964844 249.960938 17.066406-17.0625 12.066406 12.066406-17.0625 17.066406zm0 0" fill="url(#d)"/><path d="m147.570312 147.5625 17.0625-17.0625 12.070313 12.066406-17.066406 17.0625zm0 0" fill="url(#e)"/><path d="m121.964844 121.960938 17.0625-17.0625 12.066406 12.066406-17.0625 17.066406zm0 0" fill="url(#f)"/></svg>