<?xml version="1.0" encoding="iso-8859-1"?>
<!-- Generator: Adobe Illustrator 19.0.0, SVG Export Plug-In . SVG Version: 6.00 Build 0)  -->
<svg version="1.1" id="Capa_1" xmlns="http://www.w3.org/2000/svg" xmlns:xlink="http://www.w3.org/1999/xlink" x="0px" y="0px"
	 viewBox="0 0 480 480" style="enable-background:new 0 0 480 480;" xml:space="preserve">
<path style="fill:#6BBEA1;" d="M152,88l48,48l-64,64l-48-48c-17.6-17.6-17.6-46.4,0-64l0,0C105.6,70.4,134.4,70.4,152,88z"/>
<rect x="182.228" y="171.601" transform="matrix(-0.7071 0.7071 -0.7071 -0.7071 549.4627 228.4051)" style="fill:#14A085;" width="90.399" height="112.799"/>
<rect x="155.235" y="164" transform="matrix(-0.7071 0.7071 -0.7071 -0.7071 429.7894 177.9754)" style="fill:#4D8157;" width="45.6" height="28"/>
<polygon style="fill:#E2C675;" points="312,272 272,312 272,384 384,272 "/>
<circle style="fill:#E4AF18;" cx="352" cy="352" r="16"/>
<rect x="237.479" y="115.75" transform="matrix(-0.7071 0.7071 -0.7071 -0.7071 695.709 -40.6722)" style="fill:#E2C675;" width="237.598" height="16"/>
<rect x="313.766" y="89.21" transform="matrix(-0.7071 0.7071 -0.7071 -0.7071 653.7563 -46.7755)" style="fill:#C3922E;" width="45.6" height="45.6"/>
<g>
	
		<rect x="281.766" y="121.184" transform="matrix(-0.7071 0.7071 -0.7071 -0.7071 621.7382 30.4356)" style="fill:#CDA349;" width="45.6" height="45.6"/>
	
		<rect x="344.683" y="54.924" transform="matrix(-0.7071 0.7071 -0.7071 -0.7071 687.0715 -129.1464)" style="fill:#CDA349;" width="51.2" height="45.6"/>
</g>
<rect x="380.683" y="18.893" transform="matrix(-0.7071 0.7071 -0.7071 -0.7071 723.0494 -216.1113)" style="fill:#C3922E;" width="51.2" height="45.6"/>
<rect x="412.681" y="50.893" transform="matrix(-0.7071 0.7071 -0.7071 -0.7071 800.3015 -184.1102)" style="fill:#CDA349;" width="51.2" height="45.6"/>
<rect x="376.681" y="86.924" transform="matrix(-0.7071 0.7071 -0.7071 -0.7071 764.3235 -97.1452)" style="fill:#C3922E;" width="51.2" height="45.6"/>
<rect x="345.764" y="121.21" transform="matrix(-0.7071 0.7071 -0.7071 -0.7071 731.0084 -14.7744)" style="fill:#CDA349;" width="45.6" height="45.6"/>
<rect x="313.764" y="153.184" transform="matrix(-0.7071 0.7071 -0.7071 -0.7071 698.9903 62.4367)" style="fill:#C3922E;" width="45.6" height="45.6"/>
<rect x="5.479" y="347.716" transform="matrix(-0.7071 0.7071 -0.7071 -0.7071 463.6853 519.3679)" style="fill:#E2C675;" width="237.598" height="16"/>
<rect x="121.788" y="345.191" transform="matrix(-0.7071 0.7071 -0.7071 -0.7071 507.0358 525.9597)" style="fill:#C3922E;" width="45.6" height="45.6"/>
<g>
	
		<rect x="153.788" y="313.208" transform="matrix(-0.7071 0.7071 -0.7071 -0.7071 539.0482 448.7349)" style="fill:#CDA349;" width="45.6" height="45.6"/>
	
		<rect x="84.705" y="378.919" transform="matrix(-0.7071 0.7071 -0.7071 -0.7071 472.3606 607.7786)" style="fill:#CDA349;" width="51.2" height="45.6"/>
</g>
<rect x="48.673" y="414.918" transform="matrix(-0.7071 0.7071 -0.7071 -0.7071 436.3054 694.7115)" style="fill:#C3922E;" width="51.2" height="45.6"/>
<rect x="16.651" y="382.918" transform="matrix(-0.7071 0.7071 -0.7071 -0.7071 359.0123 662.7274)" style="fill:#CDA349;" width="51.2" height="45.6"/>
<rect x="52.675" y="346.919" transform="matrix(-0.7071 0.7071 -0.7071 -0.7071 395.0539 575.8)" style="fill:#C3922E;" width="51.2" height="45.6"/>
<rect x="89.766" y="313.191" transform="matrix(-0.7071 0.7071 -0.7071 -0.7071 429.7427 493.9756)" style="fill:#CDA349;" width="45.6" height="45.6"/>
<rect x="121.766" y="281.208" transform="matrix(-0.7071 0.7071 -0.7071 -0.7071 461.7552 416.7507)" style="fill:#C3922E;" width="45.6" height="45.6"/>
<path d="M416,344h-16c0,31.2-24.8,56-56,56h-8v16h8C384,416,416,384,416,344z"/>
<path d="M320,448h24c57.6,0,104-46.4,104-104v-16h-16v16c0,48.8-39.2,88-88,88h-24V448z"/>
<path d="M464,344c0,66.4-53.6,120-120,120h-32v16h32c75.2,0,136-60.8,136-136v-32h-16V344z"/>
<path d="M413.6,2.4c-3.2-3.2-8-3.2-11.2,0l-136,136c-3.2,3.2-3.2,8,0,11.2l26.4,26.4L272,196.8l-46.4-46.4c-3.2-3.2-8-3.2-11.2,0
	L204,160.8l-8.8-8.8l10.4-10.4c3.2-3.2,3.2-8,0-11.2l-48-48c-20.8-20.8-54.4-20.8-75.2-0.8c-2.4,2.4-4,4.8-6.4,7.2L45.6,58.4
	L34.4,69.6L68.8,104c-5.6,19.2-0.8,39.2,13.6,53.6l48,48c3.2,3.2,8,3.2,11.2,0l10.4-10.4l8.8,8.8l-10.4,10.4c-3.2,3.2-3.2,8,0,11.2
	l46.4,46.4L176,292.8l-26.4-26.4c-3.2-3.2-8-3.2-11.2,0l-136,136c-3.2,3.2-3.2,8,0,11.2l64,64c3.2,3.2,8,3.2,11.2,0l136-136
	c3.2-3.2,3.2-8,0-11.2L187.2,304l20.8-20.8l22.4,22.4c3.2,3.2,8,3.2,11.2,0l26.4-26.4l12.8,12.8l-14.4,14.4
	c-1.6,1.6-2.4,3.2-2.4,5.6v72c0,3.2,1.6,6.4,4.8,7.2c0.8,0.8,2.4,0.8,3.2,0.8c2.4,0,4-0.8,5.6-2.4l50.4-50.4l2.4,2.4
	c-1.6,3.2-2.4,7.2-2.4,10.4c0,13.6,10.4,24,24,24s24-10.4,24-24s-10.4-24-24-24c-3.2,0-7.2,0.8-10.4,2.4l-2.4-2.4l50.4-50.4
	c3.2-3.2,3.2-8,0-11.2c-1.6-1.6-3.2-2.4-5.6-2.4h-72c-2.4,0-4,0.8-5.6,2.4L292,280.8L279.2,268l26.4-26.4c3.2-3.2,3.2-8,0-11.2
	L283.2,208l20.8-20.8l26.4,26.4c3.2,3.2,8,3.2,11.2,0l136-136c3.2-3.2,3.2-8,0-11.2L413.6,2.4z M144,283.2l20.8,20.8L144,324.8
	L123.2,304L144,283.2z M108,383.2l20.8,20.8L108,424.8L87.2,404L108,383.2z M76,392.8L55.2,372L76,351.2L96.8,372L76,392.8z
	 M119.2,372l24.8-24.8l20.8,20.8L140,392.8L119.2,372z M108,360.8L87.2,340l24.8-24.8l20.8,20.8L108,360.8z M44,383.2L64.8,404
	L40,428.8L19.2,408L44,383.2z M72,460.8L51.2,440L76,415.2L96.8,436L72,460.8z M196.8,336L176,356.8L155.2,336l20.8-20.8L196.8,336z
	 M360,352c0,4.8-3.2,8-8,8s-8-3.2-8-8s3.2-8,8-8S360,347.2,360,352z M315.2,280h49.6L280,364.8v-49.6L315.2,280z M136,188.8
	l-42.4-42.4c-7.2-7.2-11.2-17.6-10.4-28l7.2,7.2l11.2-11.2L88,100.8c1.6-2.4,3.2-4.8,5.6-7.2c14.4-14.4,38.4-14.4,52.8,0l42.4,42.4
	l-10.4,10.4l-32,32L136,188.8z M163.2,184l20.8-20.8l8.8,8.8L172,192.8L163.2,184z M236,288.8L187.2,240l18.4-18.4l-11.2-11.2
	L176,228.8l-8.8-8.8l10.4-10.4l32-32l10.4-10.4l68.8,68.8L236,288.8z M408,19.2L428.8,40L404,64.8L383.2,44L408,19.2z M368,123.2
	l20.8,20.8L368,164.8L347.2,144L368,123.2z M336,132.8L315.2,112L336,91.2l20.8,20.8L336,132.8z M379.2,112L404,87.2l20.8,20.8
	L400,132.8L379.2,112z M368,100.8L347.2,80L372,55.2L392.8,76L368,100.8z M283.2,144l20.8-20.8l20.8,20.8L304,164.8L283.2,144z
	 M336,196.8L315.2,176l20.8-20.8l20.8,20.8L336,196.8z M436,96.8L415.2,76L440,51.2L460.8,72L436,96.8z"/>
<rect x="236.795" y="223.998" transform="matrix(-0.7071 0.7071 -0.7071 -0.7071 587.4019 220.687)" width="22.4" height="16"/>
<rect x="140.8" y="127.998" transform="matrix(-0.7071 0.7071 -0.7071 -0.7071 355.6456 124.6836)" width="22.4" height="16"/>
<rect x="116.811" y="103.998" transform="matrix(-0.7071 0.7071 -0.7071 -0.7071 297.7236 100.6756)" width="22.4" height="16"/>
<g>
</g>
<g>
</g>
<g>
</g>
<g>
</g>
<g>
</g>
<g>
</g>
<g>
</g>
<g>
</g>
<g>
</g>
<g>
</g>
<g>
</g>
<g>
</g>
<g>
</g>
<g>
</g>
<g>
</g>
</svg>
