<?xml version="1.0" encoding="utf-8"?>
<!-- Generator: Adobe Illustrator 22.1.0, SVG Export Plug-In . SVG Version: 6.00 Build 0)  -->
<svg version="1.1" id="Layer_1" xmlns="http://www.w3.org/2000/svg" xmlns:xlink="http://www.w3.org/1999/xlink" x="0px" y="0px"
	 viewBox="0 0 512 512" style="enable-background:new 0 0 512 512;" xml:space="preserve">
<style type="text/css">
	.st0{fill:#ECF4F7;}
	.st1{fill:#AAB1BA;}
	.st2{fill:#BEF2EF;}
	.st3{fill:#283E4E;}
</style>
<g>
	<g>
		<path class="st0" d="M322.4,407.5v-15.6c0-5.4-4.4-9.8-9.8-9.8h-97.3c-5.4,0-9.8,4.4-9.8,9.8v15.6c0,5.4,4.4,9.8,9.8,9.8
			c-5.4,0-9.8,4.4-9.8,9.8v15.6c0,5.4,4.4,9.8,9.8,9.8h97.3c5.4,0,9.8-4.4,9.8-9.8v-15.6c0-5.4-4.4-9.8-9.8-9.8
			C318,417.3,322.4,412.9,322.4,407.5z"/>
	</g>
</g>
<g>
	<g>
		<path class="st1" d="M274.5,506.9h-21.3c-10.9,0-19.8-8.9-19.8-19.8v-34.6h60.9v34.6C294.4,498,285.5,506.9,274.5,506.9z"/>
	</g>
</g>
<g>
	<g>
		<path class="st2" d="M453.1,200.5v-28.6c0-5-4.1-9.1-9.1-9.1h-31.5c-3.6-21.9-12.2-42.1-24.6-59.4l22.3-22.3
			c3.6-3.6,3.6-9.3,0-12.9L390,48c-3.6-3.6-9.3-3.6-12.9,0l-22.3,22.3c-17.3-12.4-37.5-21-59.4-24.6V14.2c0-5-4.1-9.1-9.1-9.1h-14.4
			c-5,0-9.1,4.1-9.1,9.1v367.8h32.6v-27.1c0-15.6,10-29.3,24.7-34.6c12.5-4.5,24.1-10.6,34.7-18.2l22.3,22.3c3.6,3.6,9.3,3.6,12.9,0
			l20.2-20.2c3.6-3.6,3.6-9.3,0-12.9L387.9,269c12.4-17.3,21-37.5,24.6-59.4H444C449,209.7,453.1,205.6,453.1,200.5z"/>
	</g>
</g>
<g>
	<g>
		<circle class="st0" cx="262.8" cy="188.6" r="79.7"/>
	</g>
</g>
<path class="st3" d="M116.2,53.2c0-2.8,2.3-5.1,5.1-5.1h6v-6c0-2.8,2.3-5.1,5.1-5.1s5.1,2.3,5.1,5.1v6h6c2.8,0,5.1,2.3,5.1,5.1
	s-2.3,5.1-5.1,5.1h-6v6c0,2.8-2.3,5.1-5.1,5.1s-5.1-2.3-5.1-5.1v-6h-6C118.5,58.3,116.2,56.1,116.2,53.2z M143.5,320.6h-6v-6
	c0-2.8-2.3-5.1-5.1-5.1s-5.1,2.3-5.1,5.1v6h-6c-2.8,0-5.1,2.3-5.1,5.1s2.3,5.1,5.1,5.1h6v6c0,2.8,2.3,5.1,5.1,5.1s5.1-2.3,5.1-5.1
	v-6h6c2.8,0,5.1-2.3,5.1-5.1S146.3,320.6,143.5,320.6z M81.1,177.5h-6v-6c0-2.8-2.3-5.1-5.1-5.1c-2.8,0-5.1,2.3-5.1,5.1v6h-6
	c-2.8,0-5.1,2.3-5.1,5.1s2.3,5.1,5.1,5.1h6v6c0,2.8,2.3,5.1,5.1,5.1c2.8,0,5.1-2.3,5.1-5.1v-6h6c2.8,0,5.1-2.3,5.1-5.1
	S83.9,177.5,81.1,177.5z M458.2,171.9v28.6c0,7.9-6.4,14.2-14.2,14.2h-27.2c-3.8,19.1-11.4,37.5-22.2,53.6l19.2,19.2
	c2.7,2.7,4.2,6.3,4.2,10.1s-1.5,7.4-4.2,10.1L393.6,328c-5.6,5.6-14.6,5.6-20.1,0l-19.2-19.2c-10.1,6.8-20.9,12.3-32.4,16.4
	c-12.7,4.6-21.3,16.5-21.3,29.8v22h12c8.2,0,14.9,6.7,14.9,14.9v15.6c0,3.8-1.4,7.2-3.7,9.8c2.3,2.6,3.7,6.1,3.7,9.8v15.6
	c0,8.2-6.7,14.9-14.9,14.9h-13.1v29.5c0,5.5-1.8,10.6-4.8,14.7h45.7c2.8,0,5.1,2.3,5.1,5.1c0,2.8-2.3,5.1-5.1,5.1h-65.9h-21.3h-65.9
	c-2.8,0-5.1-2.3-5.1-5.1c0-2.8,2.3-5.1,5.1-5.1h45.7c-3-4.1-4.8-9.2-4.8-14.7v-29.5h-13.1c-8.2,0-14.9-6.7-14.9-14.9v-15.6
	c0-3.8,1.4-7.2,3.7-9.8c-2.3-2.6-3.7-6.1-3.7-9.8v-15.6c0-8.2,6.7-14.9,14.9-14.9h9.7v-13.5c0-14.7-8.7-27.9-22.2-33.7
	c-55.7-24-91.7-78.7-91.7-139.4c0-81.9,65.3-148.9,146.6-151.6V14.2c0-7.9,6.4-14.2,14.2-14.2h14.4c7.9,0,14.2,6.4,14.2,14.2v27.2
	c19.1,3.8,37.5,11.4,53.6,22.2l19.2-19.2c2.7-2.7,6.3-4.2,10.1-4.2c3.8,0,7.4,1.5,10.1,4.2l20.2,20.2c2.7,2.7,4.2,6.3,4.2,10.1
	c0,3.8-1.5,7.4-4.2,10.1L394.6,104c10.9,16.2,18.5,34.6,22.2,53.6H444C451.8,157.7,458.2,164.1,458.2,171.9z M267.9,184.3V263
	c38.8-2.6,69.5-35,69.5-74.4c0-41.2-33.5-74.6-74.6-74.6s-74.6,33.5-74.6,74.6c0,39.4,30.7,71.8,69.5,74.4v-78.7
	c0-2.8,2.3-5.1,5.1-5.1S267.9,181.5,267.9,184.3z M289.2,457.6h-50.7v29.5c0,8.1,6.6,14.7,14.7,14.7h21.3c8.1,0,14.7-6.6,14.7-14.7
	L289.2,457.6L289.2,457.6z M317.2,427.1c0-2.6-2.1-4.7-4.7-4.7h-97.3c-2.6,0-4.7,2.1-4.7,4.7v15.6c0,2.6,2.1,4.7,4.7,4.7h18.2h60.9
	h18.2c2.6,0,4.7-2.1,4.7-4.7L317.2,427.1L317.2,427.1z M312.5,387.2h-17.1h-32.6c0,0,0,0,0,0h-32.8c0,0,0,0,0,0h-14.8
	c-2.6,0-4.7,2.1-4.7,4.7v15.6c0,2.6,2.1,4.7,4.7,4.7h97.3c2.6,0,4.7-2.1,4.7-4.7v-15.6C317.2,389.3,315.1,387.2,312.5,387.2z
	 M448,171.9c0-2.2-1.8-4-4-4h-31.5c-2.5,0-4.6-1.8-5.1-4.3c-3.4-20.5-11.6-40.3-23.7-57.2c-1.5-2-1.2-4.8,0.5-6.6l22.3-22.3
	c0.8-0.8,1.2-1.8,1.2-2.8s-0.4-2.1-1.2-2.8l-20.2-20.2c-1.5-1.5-4.1-1.5-5.7,0l-22.3,22.3c-1.8,1.8-4.6,2-6.6,0.5
	c-16.9-12.1-36.7-20.3-57.2-23.7c-2.5-0.4-4.3-2.5-4.3-5.1V14.2c0-2.2-1.8-4-4-4h-14.4c-2.2,0-4,1.8-4,4v53.1c0,2.8-2.3,5.1-5.1,5.1
	s-5.1-2.3-5.1-5.1V49c-75.7,2.7-136.4,65.1-136.4,141.4c0,56.6,33.6,107.6,85.5,130c17.2,7.4,28.4,24.4,28.4,43.1v13.5h22.5V273.3
	c-44.4-2.7-79.7-39.6-79.7-84.7c0-46.8,38.1-84.9,84.9-84.9s84.9,38.1,84.9,84.9c0,45.1-35.3,82-79.7,84.7v103.7h22.4v-22
	c0-17.6,11.3-33.4,28.1-39.4c11.9-4.3,23.1-10.2,33.4-17.5c2-1.5,4.8-1.2,6.6,0.5l22.3,22.3c1.6,1.6,4.1,1.6,5.7,0l20.2-20.2
	c0.8-0.8,1.2-1.8,1.2-2.8s-0.4-2.1-1.2-2.8l-22.3-22.3c-1.8-1.8-2-4.6-0.5-6.6c12.1-16.9,20.3-36.7,23.7-57.2
	c0.4-2.5,2.5-4.3,5.1-4.3H444c2.2,0,4-1.8,4-4L448,171.9L448,171.9z M262.8,81.7c-2.8,0-5.1,2.3-5.1,5.1v2.3c0,2.8,2.3,5.1,5.1,5.1
	s5.1-2.3,5.1-5.1v-2.3C267.9,84,265.6,81.7,262.8,81.7z M269,149c0-2.8-2.3-5.1-5.1-5.1s-5.1,2.3-5.1,5.1v9.3c0,2.8,2.3,5.1,5.1,5.1
	s5.1-2.3,5.1-5.1V149z M164.9,501.8h-5.4c-2.8,0-5.1,2.3-5.1,5.1c0,2.8,2.3,5.1,5.1,5.1h5.4c2.8,0,5.1-2.3,5.1-5.1
	C170,504.1,167.8,501.8,164.9,501.8z M368.2,501.8h-5.4c-2.8,0-5.1,2.3-5.1,5.1c0,2.8,2.3,5.1,5.1,5.1h5.4c2.8,0,5.1-2.3,5.1-5.1
	C373.3,504.1,371.1,501.8,368.2,501.8z"/>
</svg>
