<?xml version="1.0" encoding="utf-8"?>
<!-- Generator: Adobe Illustrator 22.1.0, SVG Export Plug-In . SVG Version: 6.00 Build 0)  -->
<svg version="1.1" id="Layer_1" xmlns="http://www.w3.org/2000/svg" xmlns:xlink="http://www.w3.org/1999/xlink" x="0px" y="0px"
	 viewBox="0 0 512 512" style="enable-background:new 0 0 512 512;" xml:space="preserve">
<style type="text/css">
	.st0{fill:#BEF2EF;}
	.st1{fill:#FFFFFF;}
	.st2{fill:#283E4E;}
</style>
<path class="st0" d="M360.2,260.7L264,393v101.8h192.4V393L360.2,260.7z"/>
<path class="st1" d="M432.4,494.8v-86.2c0-5.1-1.6-10-4.6-14.1l-48.1-66.1c-9.6-13.2-29.3-13.2-38.9,0l-48.1,66.1
	c-3,4.1-4.6,9.1-4.6,14.1v86.2H432.4z"/>
<path class="st0" d="M103.7,118h-16l-16,376.8h48.1L103.7,118z"/>
<path class="st0" d="M71.6,494.8h48.1l-2-48.1h-44L71.6,494.8z"/>
<path class="st0" d="M372.7,358.5h-32.5c-2.3,0-4.2,1.7-4.5,4l-7.2,64.9c-0.2,1.7,1.2,3.2,2.9,3.2h28.8l-6.5,58.9
	c-0.3,2.4,3.1,3.4,4.1,1.1l40.5-87.8c0.9-2-0.5-4.4-2.8-4.4h-27.3l7.3-36.6C375.9,360.2,374.5,358.5,372.7,358.5z"/>
<path class="st0" d="M335.7,362.5l-7.2,64.9c-0.2,1.7,1.2,3.2,2.9,3.2h28.8l-6.5,58.9c-0.1,1.2,0.6,2,1.5,2.3l18.3-67.1
	c1.4-5.1-2.4-10.1-7.7-10.1h-12.3c-4.9,0-8.6-4.3-7.9-9.2l6.7-47h-12C337.9,358.5,336,360.3,335.7,362.5z"/>
<path class="st2" d="M504.5,487.3H496V382.6c0-1.6-0.5-3.1-1.4-4.4L366.3,201.8c-1.4-1.9-3.7-3.1-6.1-3.1s-4.7,1.1-6.1,3.1
	l-83.5,114.9C169,255.1,126.1,168.8,114.3,140.6l-0.1-3.2l65.7,37.9c1.2,0.7,2.5,1,3.7,1c2.6,0,5.1-1.3,6.5-3.8
	c2.1-3.6,0.8-8.2-2.7-10.2l-68.6-39.6c0.3-1.5,0.5-3.1,0.5-4.7c0-10.4-6.7-19.2-16-22.3V16.5c0-4.1-3.4-7.5-7.5-7.5
	c-4.1,0-7.5,3.4-7.5,7.5v79.2c-9.3,3.1-16,11.9-16,22.3c0,1.6,0.2,3.2,0.5,4.7L4,162.3c-3.6,2.1-4.8,6.7-2.7,10.2
	c1.4,2.4,3.9,3.8,6.5,3.8c1.3,0,2.6-0.3,3.7-1l65.7-37.9l-0.8,20.5c-0.2,4.1,3.1,7.6,7.2,7.8c0.1,0,0.2,0,0.3,0c4,0,7.3-3.2,7.5-7.2
	l0.6-17.1c1.2,0.2,2.4,0.3,3.6,0.3c1.1,0,2.3-0.1,3.4-0.2c0,0.8,0.1,1.6,0.3,2.4l10.8,295.5h-29l9.1-248.7c0.1-4.1-3.1-7.6-7.2-7.8
	c-4.2-0.1-7.6,3.1-7.8,7.2L64.4,487.3H7.5c-4.1,0-7.5,3.4-7.5,7.5c0,4.1,3.4,7.5,7.5,7.5h312.6c4.1,0,7.5-3.4,7.5-7.5
	c0-4.1-3.4-7.5-7.5-7.5h-48.6v-91.9l62.9-86.4c2.4-3.3,1.7-8-1.7-10.5c-3.4-2.4-8-1.7-10.5,1.7l-64.3,88.4c-0.9,1.3-1.4,2.8-1.4,4.4
	v94.3h-17.1V385l120.8-166L481,385v102.3h-17.1V393c0-1.6-0.5-3.1-1.4-4.4l-96.1-132.1c-0.3-0.4-0.5-0.7-0.9-1
	c-0.6-0.6-1.4-1.1-2.1-1.5c-1-0.5-2.1-0.7-3.2-0.7c0,0,0,0,0,0c-1.1,0-2.2,0.2-3.2,0.7c-0.8,0.4-1.5,0.9-2.1,1.5
	c-0.3,0.3-0.6,0.7-0.9,1l-12.7,17.5c-2.4,3.4-1.7,8,1.7,10.5c3.4,2.4,8,1.7,10.5-1.7l6.8-9.3l88.7,122v91.9h-60.6
	c-4.1,0-7.5,3.4-7.5,7.5c0,4.1,3.4,7.5,7.5,7.5h116.2c4.1,0,7.5-3.4,7.5-7.5C512,490.7,508.6,487.3,504.5,487.3z M87.1,118
	c0-4.7,3.8-8.5,8.5-8.5c4.7,0,8.5,3.8,8.5,8.5c0,4.7-3.8,8.5-8.5,8.5C91,126.6,87.1,122.7,87.1,118z M80.6,454.2h30.1l1.2,33.1H79.4
	L80.6,454.2z M225.9,378.2c-0.9,1.3-1.4,2.8-1.4,4.4v104.7H127l-11.4-310c22.4,40.5,67.1,103.2,146.2,151.5L225.9,378.2z"/>
<path class="st2" d="M406.7,394.7c-1.4-2.2-3.8-3.6-6.4-3.6h-22.9l6.2-31.1c0.4-2.2-0.1-4.5-1.6-6.2c-1.4-1.7-3.6-2.7-5.8-2.7h-40.1
	c-3.8,0-7,2.9-7.5,6.7l-8,72.1c-0.2,2.1,0.4,4.2,1.9,5.8c1.4,1.6,3.5,2.5,5.6,2.5h23.6l-7,55.7c-0.5,3.6,1.8,7.1,5.3,8.1
	c0.7,0.2,1.5,0.3,2.2,0.3c2.8,0,5.4-1.6,6.7-4.1L407,402C408.2,399.6,408,396.9,406.7,394.7z M365.1,452.3l2.6-20.7
	c0.3-2.1-0.4-4.3-1.8-5.9s-3.5-2.5-5.6-2.5h-23.7l6.4-57.1h24.2l-6.2,31.1c-0.4,2.2,0.1,4.5,1.6,6.2s3.6,2.7,5.8,2.7h19.9
	L365.1,452.3z"/>
</svg>
